<svg width="76" height="79" viewBox="0 0 76 79" fill="none" xmlns="http://www.w3.org/2000/svg">
<path d="M58.7327 13.7107C64.8327 19.9107 69.6327 26.0107 72.7327 33.2107C75.8327 40.4107 77.1327 48.7106 74.3327 55.3106C71.6327 61.9106 64.9327 66.7107 58.2327 70.8107C51.5327 74.9107 44.8327 78.3106 37.8327 78.7106C30.8327 79.1106 23.4327 76.6106 16.6327 72.6106C9.73266 68.6106 3.23266 62.9107 1.03266 56.0107C-1.26734 49.0107 0.632659 40.7107 3.23266 32.5107C5.83266 24.4107 9.13266 16.5107 15.0327 10.2107C21.0327 3.91065 29.5327 -0.789347 37.5327 0.110653C45.4327 1.01065 52.7327 7.41065 58.7327 13.7107Z" fill="url(#paint0_linear_3_3)"/>
<defs>
<linearGradient id="paint0_linear_3_3" x1="0" y1="78.7525" x2="78.698" y2="2.93023" gradientUnits="userSpaceOnUse">
<stop stop-color="#22C55E"/>
<stop offset="1" stop-color="#5AFE96"/>
</linearGradient>
</defs>
</svg>
