<svg width="1920" height="1080" viewBox="0 0 1920 1080" fill="none" xmlns="http://www.w3.org/2000/svg">
<path d="M629.008 516.82C629.008 693.42 648.348 809.92 687.048 866.29C714.378 905.2 743.608 927.65 774.738 933.64V926.16C729.728 907.2 696.928 866.05 676.328 802.69C655.718 739.34 645.418 648.29 645.418 529.55C645.418 462.93 648.238 405.33 653.868 356.68C648.018 357.19 642.188 357.65 636.378 358.1C631.468 403.83 629.008 456.73 629.008 516.82Z" fill="#CCCCCC"/>
<path d="M793.029 142.661C843.909 142.661 885.339 167.351 917.309 216.741L926.769 210.011C894.799 151.151 851.269 121.711 796.179 121.711C737.289 121.711 694.709 152.771 668.429 214.881C653.489 250.171 642.809 297.931 636.359 358.111C642.169 357.651 648.009 357.191 653.849 356.691C659.679 306.251 668.529 265.451 680.419 234.341C703.769 173.221 741.299 142.661 793.029 142.661Z" fill="#CCCCCC"/>
<path d="M1087.11 223.113C1051.56 139.563 1001.84 81.0628 937.906 47.6328V54.3728C1000.57 98.2728 1046.94 159.133 1077.02 236.963C1091.64 274.803 1102.7 317.563 1110.21 365.193C1116.11 365.413 1122.02 365.583 1127.93 365.763C1119.04 313.793 1105.45 266.233 1087.11 223.113Z" fill="#CCCCCC"/>
<path d="M1114.41 375.898C1122.35 426.228 1126.33 481.998 1126.33 543.248C1126.33 705.888 1096.46 832.848 1036.75 924.148C977.031 1015.45 893.961 1061.1 787.561 1061.1C714.791 1061.1 647.721 1031.17 586.321 971.298L580.641 976.538C617.641 1014.96 652.031 1041.77 683.791 1056.99C715.541 1072.2 752.871 1079.81 795.771 1079.81C889.141 1079.81 966.941 1042.15 1029.19 966.808C1106.16 874.018 1144.64 729.848 1144.64 534.268C1144.64 477.778 1140.46 425.178 1132.14 376.458C1126.22 376.288 1120.31 376.108 1114.41 375.898Z" fill="#CCCCCC"/>
<path d="M1100.33 549.911C1098.93 502.391 1094.27 438.081 1087.14 397.131C1086.6 397.101 1090.49 393.611 1073.6 390.671C1051.56 386.821 997.289 391.241 967.109 388.531C969.269 388.721 971.589 447.041 971.869 452.431C973.039 475.041 972.459 518.341 974.679 540.801C979.559 541.081 976.929 547.811 1006.59 549.911C1037.34 552.091 1100.33 549.651 1100.33 549.911Z" fill="#CCCCCC"/>
<path d="M1092.21 694.551C1097.04 659.161 1099.75 621.431 1100.34 581.331C1065.82 581.181 1007.65 577.261 973.35 581.291C965.68 582.191 981.6 587.341 973.96 588.681C973.17 630.001 970.99 668.071 967.43 702.881C1009.05 700.801 1050.56 695.801 1092.21 694.551Z" fill="#CCCCCC"/>
<path d="M1035.38 731.677C1026.07 732.917 1016.78 734.367 1007.52 736.017C996.876 737.917 986.276 740.097 975.716 742.537C964.496 745.137 961.876 745.987 959.956 759.047C958.246 769.297 956.346 779.517 954.186 789.657C950.276 808.077 945.576 826.307 939.726 844.057C930.086 873.337 917.276 901.837 899.126 925.577C871.616 961.557 833.266 980.667 791.346 980.667C655.076 980.667 586.946 837.487 586.946 551.127C586.946 495.777 588.966 446.027 592.996 401.827C593.376 397.607 590.576 393.867 586.836 393.687C551.806 392.067 516.786 384.687 481.756 379.797C478.366 379.327 475.216 381.907 474.566 385.697C466.636 432.107 462.656 482.497 462.656 536.907C462.656 689.077 492.406 811.297 551.926 903.587C611.436 995.887 690.186 1042.03 788.186 1042.03C884.496 1042.03 960.616 999.377 1016.56 914.057C1035.44 885.257 1050.67 853.517 1062.51 820.277C1068.83 802.527 1074.2 784.357 1078.73 765.917C1082.16 751.947 1092.99 726.287 1071.73 727.877C1059.6 728.807 1047.47 730.067 1035.38 731.677Z" fill="#CCCCCC"/>
<path d="M780.423 17.6875C684.943 17.6875 608.403 61.9675 550.793 150.518C515.583 204.638 491.153 269.617 477.453 345.427C516.783 350.567 556.113 359.448 595.443 360.378C602.543 288.018 615.193 231.007 633.433 189.427C663.293 121.327 711.443 87.2775 777.903 87.2775C849.393 87.2775 900.293 120.327 930.573 186.427C948.813 226.257 961.553 282.448 968.803 354.948C1008.77 358.548 1048.7 361.497 1088.84 363.557C1071.79 265.677 1038.38 186.548 988.613 126.188C929.713 53.8675 860.323 17.6875 780.423 17.6875Z" fill="#CCCCCC"/>
<path d="M179.079 378.886C179.079 379.424 178.705 379.798 177.957 380.008C177.059 380.247 174.277 380.367 169.609 380.367C165.33 380.367 162.577 380.247 161.35 380.008C160.333 379.798 159.69 379.125 159.42 377.988C158.403 373.679 157.61 371.375 157.042 371.076C156.563 370.867 152.553 370.762 145.013 370.762C139.927 370.762 137.219 370.897 136.89 371.166C136.381 371.645 135.812 373.246 135.184 375.968C134.616 378.452 133.927 379.798 133.119 380.008C132.102 380.247 128.691 380.367 122.886 380.367C118.308 380.367 116.019 379.933 116.019 379.065C116.019 378.287 119.4 368.727 126.163 350.385C133.493 330.548 137.473 319.641 138.101 317.666C138.46 316.529 138.879 315.961 139.358 315.961C140.166 315.961 141.408 316.036 143.083 316.185C144.789 316.335 146.061 316.41 146.898 316.41C147.706 316.41 148.888 316.365 150.444 316.275C152.03 316.155 153.212 316.095 153.99 316.095C154.558 316.095 155.082 316.589 155.561 317.577C157.027 320.718 161.306 331.49 168.397 349.892C175.518 368.413 179.079 378.078 179.079 378.886ZM147.257 337.998C146.629 339.315 145.567 342.172 144.071 346.57C142.455 351.238 141.647 353.976 141.647 354.784C141.647 355.323 142.545 355.622 144.34 355.682C145.268 355.741 146.794 355.771 148.918 355.771C150.893 355.771 151.985 355.532 152.194 355.053C152.254 354.904 152.284 354.694 152.284 354.425C152.284 353.437 151.596 350.715 150.22 346.256C148.873 341.948 147.886 339.195 147.257 337.998ZM250.621 378.616C250.621 379.544 250.187 380.008 249.32 380.008H233.431C232.564 380.008 232.13 379.484 232.13 378.437C232.13 375.415 232.235 370.882 232.444 364.838C232.683 358.793 232.803 354.26 232.803 351.238C232.803 350.371 232.668 349.907 232.399 349.847C232.07 350.026 230.065 354.649 226.385 363.716C224.231 369.042 222.076 374.353 219.922 379.649C219.623 380.337 219.249 380.741 218.8 380.861C218.65 380.89 218.052 380.905 217.005 380.905C215.449 380.905 214.521 380.606 214.222 380.008C212.606 376.716 210.482 371.929 207.849 365.645C205.036 359.003 202.926 354.2 201.52 351.238C201.46 351.089 201.326 350.924 201.116 350.745C200.907 351.014 200.802 351.448 200.802 352.046C200.802 354.978 200.877 359.377 201.026 365.242C201.176 371.106 201.251 375.505 201.251 378.437C201.251 379.484 200.832 380.008 199.994 380.008H185.003C184.405 380.008 184.031 379.918 183.881 379.739C183.762 379.529 183.702 379.185 183.702 378.706C183.702 375.445 183.851 370.553 184.151 364.03C184.48 357.477 184.644 352.57 184.644 349.308C184.644 345.837 184.495 339.329 184.196 329.785C184.166 327.301 184.031 323.606 183.792 318.699L183.747 317.936C183.717 317.337 184.345 317.038 185.632 317.038C187.277 317.038 189.746 316.993 193.037 316.903C196.329 316.784 198.797 316.724 200.443 316.724C200.772 316.724 201.236 317.352 201.834 318.609L214.94 347.378C215.867 349.323 216.645 350.296 217.274 350.296C217.603 350.296 218.306 349.174 219.383 346.93C222.405 340.646 226.879 331.176 232.803 318.519C233.312 317.352 233.865 316.769 234.464 316.769C235.331 316.769 236.633 316.814 238.368 316.903C240.134 316.993 241.465 317.038 242.363 317.038C243.111 317.038 244.248 316.963 245.774 316.814C247.33 316.664 248.482 316.589 249.23 316.589C250.128 316.589 250.576 316.948 250.576 317.666C250.576 321.197 250.442 326.478 250.173 333.51C249.933 340.511 249.813 345.778 249.813 349.308C249.813 352.57 249.948 357.462 250.217 363.985C250.487 370.508 250.621 375.385 250.621 378.616ZM311.437 369.864C311.437 370.343 311.123 370.972 310.494 371.749C304.989 378.302 297.673 381.579 288.547 381.579C279.211 381.579 271.641 378.392 265.836 372.019C260.181 365.855 257.354 358.075 257.354 348.68C257.354 339.584 260.121 331.864 265.657 325.521C271.432 318.878 278.778 315.557 287.694 315.557C297.389 315.557 304.989 318.534 310.494 324.488C311.093 325.147 311.392 325.73 311.392 326.239C311.392 326.807 310.345 328.917 308.25 332.567C306.186 336.218 304.884 338.267 304.345 338.716C304.106 338.955 303.807 339.075 303.448 339.075C303.298 339.075 302.55 338.477 301.204 337.28C299.588 335.844 298.002 334.722 296.446 333.914C294.082 332.717 291.629 332.118 289.086 332.118C284.687 332.118 281.171 333.764 278.538 337.055C276.115 340.107 274.903 343.878 274.903 348.366C274.903 352.914 276.115 356.729 278.538 359.811C281.171 363.162 284.687 364.838 289.086 364.838C291.689 364.838 294.157 364.269 296.491 363.132C298.017 362.384 299.573 361.337 301.159 359.99C302.475 358.853 303.208 358.285 303.358 358.285C303.657 358.285 303.957 358.449 304.256 358.778C304.734 359.317 306.036 361.187 308.16 364.389C310.345 367.71 311.437 369.535 311.437 369.864ZM359.506 377.719C359.506 378.287 359.252 378.811 358.743 379.29C358.234 379.768 357.681 380.008 357.082 380.008C355.646 380.008 353.492 380.023 350.619 380.053C347.747 380.083 345.592 380.098 344.156 380.098C343.049 380.098 342.51 379.619 342.54 378.661L342.585 378.168C343.004 366.738 343.214 359.811 343.214 357.387V344.057C343.214 343.219 343.019 342.8 342.63 342.8C342.032 342.8 341.119 342.98 339.892 343.339C338.695 343.698 337.783 343.878 337.154 343.878C336.227 343.878 335.763 343.324 335.763 342.217C335.763 341.2 335.748 339.674 335.718 337.639C335.688 335.604 335.673 334.063 335.673 333.016C335.673 332.418 336.047 331.969 336.795 331.67C341.194 329.844 344.65 327.391 347.163 324.309C347.672 323.681 348.106 323.366 348.465 323.366C348.525 323.366 348.704 323.396 349.003 323.456C350.14 323.695 351.831 324.069 354.075 324.578C355.272 324.728 357.022 324.997 359.326 325.386C359.745 325.506 359.955 325.835 359.955 326.373C359.955 326.553 359.925 326.867 359.865 327.316C359.536 329.949 359.371 336.397 359.371 346.66C359.371 350.101 359.386 355.278 359.416 362.19C359.476 369.101 359.506 374.278 359.506 377.719ZM394.828 343.698C394.828 343.997 394.604 344.401 394.155 344.91C393.317 344.7 392.479 344.596 391.642 344.596C389.876 344.596 388.395 344.985 387.198 345.763C385.762 346.66 385.044 347.932 385.044 349.578C385.044 350.625 385.807 351.956 387.333 353.572C389.637 355.996 391.058 357.626 391.597 358.464C393.123 360.738 393.886 363.177 393.886 365.78C393.886 367.306 393.586 368.922 392.988 370.627C392.3 372.512 391.432 373.889 390.385 374.757C388.171 376.672 385.582 378.287 382.62 379.604C379.419 380.98 376.471 381.668 373.778 381.668C373.18 381.668 371.834 380.053 369.739 376.821C367.674 373.56 366.642 371.57 366.642 370.852C366.642 370.583 366.807 370.418 367.136 370.358C369.23 369.969 371.34 369.58 373.464 369.191C376.097 368.353 377.414 366.977 377.414 365.062C377.414 363.745 376.651 362.219 375.125 360.484C372.402 357.462 370.981 355.861 370.861 355.682C369.335 353.527 368.572 351.253 368.572 348.859C368.572 344.371 370.846 340.556 375.394 337.414C379.464 334.632 383.817 333.24 388.455 333.24C388.934 333.24 390.116 334.856 392.001 338.088C393.886 341.289 394.828 343.159 394.828 343.698ZM431.362 366.857C431.362 367.755 431.243 369.116 431.003 370.942C430.794 372.767 430.689 374.113 430.689 374.981C430.689 375.819 430.599 376.357 430.42 376.597C430.24 376.836 429.747 377.18 428.939 377.629C425.079 379.753 420.8 380.816 416.102 380.816C407.455 380.816 403.131 377.509 403.131 370.897C403.131 368.922 403.206 365.96 403.356 362.01C403.505 358.03 403.58 355.053 403.58 353.078C403.58 351.762 402.817 351.104 401.291 351.104C401.172 351.104 400.977 351.104 400.708 351.104C400.439 351.134 400.244 351.148 400.124 351.148C398.987 351.148 398.419 350.745 398.419 349.937C398.419 349.458 398.449 348.725 398.509 347.737C398.598 346.75 398.643 346.017 398.643 345.538C398.643 344.91 398.598 343.952 398.509 342.666C398.449 341.379 398.419 340.422 398.419 339.793C398.419 339.195 399.376 338.866 401.291 338.806C402.368 338.776 402.952 338.477 403.042 337.908C403.221 336.771 403.281 334.976 403.221 332.522C403.102 328.662 403.042 326.822 403.042 327.002C403.042 323.531 403.371 321.795 404.029 321.795C404.837 321.795 405.989 321.975 407.485 322.334C409.191 322.723 410.372 322.947 411.031 323.007C412.557 323.217 414.861 323.501 417.943 323.86C418.691 323.92 419.065 324.174 419.065 324.623C419.065 325.82 418.96 327.63 418.751 330.054C418.571 332.477 418.481 334.303 418.481 335.529C418.481 336.996 418.915 337.729 419.783 337.729C420.83 337.729 422.416 337.684 424.54 337.594C426.665 337.504 428.266 337.459 429.343 337.459C430.001 337.459 430.33 337.684 430.33 338.133C430.33 338.821 430.255 339.853 430.106 341.229C429.956 342.606 429.881 343.638 429.881 344.326C429.881 345.044 429.896 346.092 429.926 347.468C429.956 348.845 429.971 349.892 429.971 350.61C429.971 351.238 429.537 351.552 428.67 351.552C428.071 351.552 427.069 351.537 425.662 351.508C424.256 351.448 423.254 351.418 422.655 351.418H419.289C418.84 351.418 418.616 352.076 418.616 353.393C418.616 354.111 418.616 355.173 418.616 356.579C418.646 358.015 418.661 359.078 418.661 359.766C418.661 362.279 418.945 364.015 419.514 364.972C420.321 366.259 421.907 366.902 424.271 366.902C425.019 366.902 426.081 366.738 427.458 366.408C428.864 366.049 429.851 365.87 430.42 365.87C431.048 365.87 431.362 366.199 431.362 366.857ZM503.129 348.007C503.129 353.812 502.95 357.342 502.591 358.599C502.142 360.095 498.865 365.511 492.761 374.846C491.804 376.313 489.335 379.709 485.356 385.035C480.957 390.899 478.459 393.996 477.861 394.325C477.142 394.774 472.549 394.999 464.082 394.999C462.795 394.999 461.927 394.849 461.478 394.55C461.089 393.323 460.596 391.872 459.997 390.196C459.519 389.149 459.04 388.087 458.561 387.009C457.873 385.454 457.529 384.421 457.529 383.913C457.529 383.344 457.783 383.06 458.292 383.06C466.61 383.06 470.769 381.16 470.769 377.36C470.769 377.031 468.734 374.053 464.665 368.428C460.446 362.653 458.127 359.003 457.708 357.477C457.469 356.609 457.349 353.512 457.349 348.186C457.349 347.109 457.379 345.493 457.439 343.339C457.499 341.155 457.529 339.524 457.529 338.447C457.529 337.669 458.023 337.28 459.01 337.28C460.536 337.28 462.84 337.325 465.922 337.414C469.034 337.504 471.353 337.549 472.879 337.549C473.507 337.549 473.821 338.013 473.821 338.94C473.821 339.778 473.776 341.05 473.686 342.755C473.597 344.431 473.552 345.688 473.552 346.526C473.552 350.296 473.612 352.854 473.731 354.2C473.821 355.248 474.719 357.193 476.424 360.035C478.22 362.997 479.521 364.479 480.329 364.479C481.017 364.479 482.184 363.012 483.83 360.08C485.356 357.297 486.179 355.427 486.298 354.47C486.598 351.837 486.747 348.979 486.747 345.897C486.747 345.089 486.672 343.863 486.523 342.217C486.373 340.571 486.298 339.329 486.298 338.492C486.298 337.923 486.613 337.639 487.241 337.639C488.767 337.639 491.041 337.579 494.063 337.459C497.115 337.34 499.404 337.28 500.93 337.28C501.708 337.28 502.232 337.669 502.501 338.447C502.92 339.823 503.129 343.01 503.129 348.007ZM549.627 355.637C549.627 358.659 548.655 360.379 546.71 360.798C546.381 360.858 543.284 361.187 537.419 361.786C533.889 362.175 528.622 362.638 521.621 363.177C522.04 365.122 523.311 366.603 525.436 367.62C527.171 368.458 529.146 368.877 531.36 368.877C534.023 368.877 536.701 368.159 539.394 366.723C540.531 366.005 541.668 365.286 542.805 364.568C543.434 364.868 544.481 366.394 545.947 369.146C547.443 371.899 548.191 373.649 548.191 374.398C548.191 374.607 547.967 374.951 547.518 375.43C543.867 379.35 538.197 381.309 530.507 381.309C523.386 381.309 517.641 379.23 513.273 375.071C508.784 370.852 506.54 365.212 506.54 358.15C506.54 351.268 508.545 345.628 512.555 341.229C516.684 336.681 522.159 334.407 528.981 334.407C534.726 334.407 539.604 336.502 543.613 340.691C547.623 344.88 549.627 349.862 549.627 355.637ZM533.919 352.899C533.919 351.044 533.26 349.413 531.944 348.007C530.627 346.6 529.056 345.897 527.231 345.897C525.346 345.897 523.79 346.69 522.563 348.276C521.426 349.742 520.858 351.463 520.858 353.437C520.858 354.245 521.277 354.649 522.115 354.649C524.329 354.649 527.77 354.305 532.437 353.617C533.425 353.467 533.919 353.228 533.919 352.899ZM599.671 357.567C599.671 359.871 599.806 363.297 600.075 367.845C600.344 372.393 600.479 375.804 600.479 378.078C600.479 379.275 599.955 379.918 598.908 380.008C595.198 380.277 590.949 380.412 586.162 380.412C585.593 380.412 585.204 379.559 584.995 377.853C584.815 376.118 584.591 375.235 584.321 375.205C584.082 375.325 583.768 375.579 583.379 375.968C580.028 379.35 576.437 381.04 572.607 381.04C566.772 381.04 561.94 378.736 558.11 374.128C554.49 369.82 552.679 364.673 552.679 358.689C552.679 351.777 554.549 346.211 558.29 341.992C562.179 337.624 567.505 335.44 574.268 335.44C578.965 335.44 582.676 337.085 585.399 340.377C585.518 340.526 585.623 340.601 585.713 340.601C585.982 340.601 586.281 339.883 586.61 338.447C586.969 336.981 587.388 336.248 587.867 336.248C588.974 336.248 591.084 336.562 594.196 337.19C597.158 337.789 599.282 338.297 600.569 338.716C601.018 338.896 601.242 339.135 601.242 339.434C601.242 339.554 601.197 339.868 601.107 340.377C600.15 345.793 599.671 351.523 599.671 357.567ZM585.219 357.836C585.219 355.293 584.411 353.198 582.795 351.552C581.21 349.877 579.13 349.039 576.557 349.039C573.983 349.039 571.904 349.862 570.318 351.508C568.732 353.153 567.939 355.263 567.939 357.836C567.939 360.26 568.777 362.339 570.453 364.075C572.128 365.81 574.163 366.678 576.557 366.678C579.1 366.678 581.18 365.855 582.795 364.209C584.411 362.534 585.219 360.409 585.219 357.836ZM638.36 352.046C638.36 353.213 637.716 353.797 636.43 353.797C635.861 353.797 635.023 353.767 633.916 353.707C632.839 353.617 632.031 353.572 631.493 353.572C629.009 353.572 627.319 353.961 626.421 354.739C625.523 355.517 625.075 357.088 625.075 359.452C625.075 360.738 625.089 362.698 625.119 365.331C625.179 367.934 625.209 369.879 625.209 371.166C625.209 372.034 625.269 373.335 625.389 375.071C625.508 376.776 625.568 378.048 625.568 378.886C625.568 379.604 625.075 380.008 624.087 380.098C622.651 380.217 620.452 380.277 617.489 380.277C614.647 380.277 612.373 380.187 610.667 380.008C609.68 379.888 609.186 379.394 609.186 378.527C609.186 376.133 609.201 372.557 609.231 367.8C609.261 363.012 609.276 359.422 609.276 357.028C609.276 349.997 608.633 344.207 607.346 339.659C607.286 339.389 607.256 339.165 607.256 338.985C607.256 338.537 607.481 338.237 607.929 338.088C609.575 337.908 611.984 337.579 615.156 337.1C619.883 336.173 622.322 335.709 622.471 335.709C623.01 335.709 623.354 336.651 623.504 338.537C623.653 340.422 623.923 341.364 624.312 341.364C623.893 341.364 625.119 340.586 627.992 339.03C630.864 337.444 633.632 336.651 636.295 336.651C637.971 336.651 638.809 337.011 638.809 337.729C638.809 338.596 638.719 339.823 638.539 341.409C638.36 343.115 638.255 344.341 638.225 345.089C638.225 345.957 638.24 347.109 638.27 348.545C638.33 350.311 638.36 351.478 638.36 352.046Z" fill="#484646"/>
<path d="M1030.36 374.597C1030.36 375.135 1029.99 375.509 1029.24 375.719C1028.34 375.958 1025.56 376.078 1020.89 376.078C1016.61 376.078 1013.86 375.958 1012.63 375.719C1011.61 375.509 1010.97 374.836 1010.7 373.699C1009.68 369.39 1008.89 367.086 1008.32 366.787C1007.84 366.578 1003.83 366.473 996.295 366.473C991.208 366.473 988.5 366.608 988.171 366.877C987.662 367.356 987.094 368.956 986.465 371.679C985.897 374.163 985.209 375.509 984.401 375.719C983.383 375.958 979.972 376.078 974.168 376.078C969.59 376.078 967.301 375.644 967.301 374.776C967.301 373.998 970.682 364.438 977.444 346.096C984.775 326.258 988.754 315.352 989.383 313.377C989.742 312.24 990.161 311.672 990.639 311.672C991.447 311.672 992.689 311.746 994.365 311.896C996.07 312.046 997.342 312.121 998.18 312.121C998.987 312.121 1000.17 312.076 1001.73 311.986C1003.31 311.866 1004.49 311.806 1005.27 311.806C1005.84 311.806 1006.36 312.3 1006.84 313.287C1008.31 316.429 1012.59 327.201 1019.68 345.603C1026.8 364.124 1030.36 373.789 1030.36 374.597ZM998.539 333.709C997.91 335.025 996.848 337.883 995.352 342.281C993.736 346.949 992.928 349.687 992.928 350.495C992.928 351.033 993.826 351.333 995.621 351.393C996.549 351.452 998.075 351.482 1000.2 351.482C1002.17 351.482 1003.27 351.243 1003.48 350.764C1003.54 350.615 1003.57 350.405 1003.57 350.136C1003.57 349.148 1002.88 346.426 1001.5 341.967C1000.15 337.659 999.167 334.906 998.539 333.709ZM1064.38 346.186C1064.35 346.186 1063.44 345.947 1061.64 345.468C1059.88 344.989 1058.44 344.75 1057.33 344.75C1054.67 344.75 1052.55 345.558 1050.96 347.174C1049.38 348.759 1048.58 350.884 1048.58 353.547C1048.58 356.3 1049.45 358.469 1051.19 360.055C1052.92 361.611 1055.18 362.389 1057.96 362.389C1059.28 362.389 1060.76 362.06 1062.41 361.401C1064.05 360.713 1064.83 360.369 1064.74 360.369C1065.25 360.369 1065.91 362.269 1066.71 366.069C1067.4 369.54 1067.75 371.844 1067.75 372.981C1067.75 374.118 1065.89 375.09 1062.18 375.898C1059.31 376.527 1056.99 376.841 1055.23 376.841C1048.64 376.841 1043.21 374.627 1038.93 370.198C1034.65 365.77 1032.51 360.249 1032.51 353.637C1032.51 347.084 1034.65 341.578 1038.93 337.12C1043.24 332.632 1048.67 330.388 1055.23 330.388C1059.68 330.388 1063.6 331.345 1066.98 333.26C1067.76 333.679 1068.15 334.083 1068.15 334.472C1068.15 334.861 1067.7 336.626 1066.8 339.768C1065.97 342.79 1065.41 344.615 1065.14 345.244C1064.9 345.872 1064.65 346.186 1064.38 346.186ZM1102.62 346.186C1102.59 346.186 1101.68 345.947 1099.88 345.468C1098.12 344.989 1096.68 344.75 1095.57 344.75C1092.91 344.75 1090.79 345.558 1089.2 347.174C1087.62 348.759 1086.82 350.884 1086.82 353.547C1086.82 356.3 1087.69 358.469 1089.43 360.055C1091.16 361.611 1093.42 362.389 1096.2 362.389C1097.52 362.389 1099 362.06 1100.65 361.401C1102.29 360.713 1103.07 360.369 1102.98 360.369C1103.49 360.369 1104.15 362.269 1104.95 366.069C1105.64 369.54 1105.99 371.844 1105.99 372.981C1105.99 374.118 1104.13 375.09 1100.42 375.898C1097.55 376.527 1095.23 376.841 1093.46 376.841C1086.88 376.841 1081.45 374.627 1077.17 370.198C1072.89 365.77 1070.75 360.249 1070.75 353.637C1070.75 347.084 1072.89 341.578 1077.17 337.12C1081.48 332.632 1086.91 330.388 1093.46 330.388C1097.92 330.388 1101.84 331.345 1105.22 333.26C1106 333.679 1106.39 334.083 1106.39 334.472C1106.39 334.861 1105.94 336.626 1105.04 339.768C1104.21 342.79 1103.65 344.615 1103.38 345.244C1103.14 345.872 1102.89 346.186 1102.62 346.186ZM1154.33 353.637C1154.33 360.459 1152.23 365.994 1148.04 370.243C1143.88 374.492 1138.41 376.616 1131.61 376.616C1125.03 376.616 1119.62 374.522 1115.37 370.333C1111.12 366.144 1108.99 360.758 1108.99 354.175C1108.99 347.233 1111.03 341.608 1115.1 337.299C1119.17 332.961 1124.67 330.792 1131.61 330.792C1138.38 330.792 1143.85 332.916 1148.04 337.165C1152.23 341.384 1154.33 346.874 1154.33 353.637ZM1139.6 353.637C1139.6 351.273 1138.87 349.193 1137.4 347.398C1135.94 345.573 1134.04 344.66 1131.7 344.66C1129.34 344.66 1127.4 345.588 1125.87 347.443C1124.43 349.178 1123.72 351.243 1123.72 353.637C1123.72 356.06 1124.43 358.14 1125.87 359.875C1127.4 361.73 1129.34 362.658 1131.7 362.658C1134.04 362.658 1135.97 361.73 1137.49 359.875C1138.9 358.14 1139.6 356.06 1139.6 353.637ZM1205.98 334.921C1205.98 337.135 1205.88 340.456 1205.67 344.885C1205.46 349.313 1205.36 352.634 1205.36 354.848C1205.36 357.003 1205.43 360.234 1205.58 364.543C1205.73 368.852 1205.81 372.068 1205.81 374.193C1205.81 375.001 1205.43 375.509 1204.68 375.719C1203.55 376.018 1201.14 376.168 1197.46 376.168C1194.2 376.168 1191.92 376.078 1190.63 375.898C1190.07 375.809 1189.71 375.449 1189.56 374.821C1189.47 373.923 1189.38 373.026 1189.29 372.128C1189.14 370.752 1188.93 370.064 1188.66 370.064C1189.08 370.064 1187.57 371.081 1184.13 373.116C1180.69 375.15 1177.56 376.168 1174.75 376.168C1166.82 376.168 1162.12 372.592 1160.65 365.441C1160 362.119 1159.67 357.302 1159.67 350.989C1159.67 344.166 1160.22 338.781 1161.33 334.831C1161.66 333.604 1162.27 332.991 1163.17 332.991C1164.54 332.991 1166.64 333.006 1169.45 333.036C1172.26 333.066 1174.36 333.081 1175.73 333.081C1176.66 333.081 1177.13 333.47 1177.13 334.247C1177.13 334.457 1177.1 334.771 1177.04 335.19C1176.41 339.259 1176.09 343.389 1176.09 347.578C1176.09 352.784 1176.26 356.345 1176.59 358.26C1177.13 361.551 1179.09 363.197 1182.47 363.197C1183.78 363.197 1185.2 362.613 1186.73 361.446C1188.29 360.279 1189.09 359.067 1189.15 357.811C1189.21 356.704 1189.24 349.193 1189.24 335.28C1189.24 334.292 1189.32 333.709 1189.47 333.529C1189.65 333.23 1190.19 333.081 1191.08 333.081C1192.55 333.081 1194.75 333.096 1197.68 333.125C1200.64 333.155 1202.86 333.17 1204.32 333.17C1205.22 333.17 1205.75 333.395 1205.89 333.844C1205.95 334.083 1205.98 334.442 1205.98 334.921ZM1258 374.417C1258 375.225 1257.58 375.689 1256.75 375.809C1255.91 375.928 1253.72 375.988 1250.19 375.988C1246.42 375.988 1244.09 375.898 1243.19 375.719C1242.29 375.539 1241.85 374.926 1241.85 373.879C1241.85 372.472 1241.89 370.348 1241.98 367.505C1242.07 364.663 1242.11 362.523 1242.11 361.087C1242.11 359.98 1242.09 358.334 1242.03 356.15C1241.97 353.936 1241.94 352.275 1241.94 351.168C1241.94 347.069 1240.16 345.019 1236.59 345.019C1235.43 345.019 1234.07 345.528 1232.51 346.545C1230.83 347.682 1230 348.804 1230 349.911V374.148C1230 375.135 1229.53 375.689 1228.61 375.809C1227.56 375.928 1225.42 375.988 1222.19 375.988C1218.69 375.988 1216.41 375.898 1215.37 375.719C1214.44 375.569 1213.97 375.075 1213.97 374.238C1213.97 371.904 1213.99 368.388 1214.02 363.69C1214.05 358.993 1214.06 355.462 1214.06 353.098C1214.06 345.648 1213.48 339.798 1212.31 335.549C1212.25 335.28 1212.22 335.055 1212.22 334.876C1212.22 334.397 1212.45 334.068 1212.9 333.888C1214.78 333.679 1217.3 333.35 1220.44 332.901C1225.19 331.973 1227.87 331.51 1228.47 331.51C1228.8 331.51 1229.05 332.527 1229.23 334.562C1229.41 336.566 1229.67 337.569 1230 337.569C1229.67 337.569 1231.27 336.536 1234.8 334.472C1238.36 332.377 1241.47 331.33 1244.13 331.33C1247.93 331.33 1251.11 332.228 1253.65 334.023C1256.49 336.088 1257.91 338.96 1257.91 342.64V356.958C1257.91 358.903 1257.93 361.82 1257.96 365.71C1257.99 369.57 1258 372.472 1258 374.417ZM1295.57 362.568C1295.57 363.466 1295.45 364.827 1295.21 366.653C1295 368.478 1294.9 369.824 1294.9 370.692C1294.9 371.53 1294.81 372.068 1294.63 372.308C1294.45 372.547 1293.95 372.891 1293.15 373.34C1289.29 375.464 1285.01 376.527 1280.31 376.527C1271.66 376.527 1267.34 373.22 1267.34 366.608C1267.34 364.633 1267.41 361.671 1267.56 357.721C1267.71 353.741 1267.79 350.764 1267.79 348.789C1267.79 347.473 1267.02 346.815 1265.5 346.815C1265.38 346.815 1265.18 346.815 1264.92 346.815C1264.65 346.844 1264.45 346.859 1264.33 346.859C1263.19 346.859 1262.63 346.455 1262.63 345.648C1262.63 345.169 1262.66 344.436 1262.72 343.448C1262.81 342.461 1262.85 341.728 1262.85 341.249C1262.85 340.621 1262.81 339.663 1262.72 338.377C1262.66 337.09 1262.63 336.133 1262.63 335.504C1262.63 334.906 1263.58 334.577 1265.5 334.517C1266.58 334.487 1267.16 334.188 1267.25 333.619C1267.43 332.482 1267.49 330.687 1267.43 328.233C1267.31 324.373 1267.25 322.533 1267.25 322.713C1267.25 319.242 1267.58 317.506 1268.24 317.506C1269.04 317.506 1270.2 317.686 1271.69 318.045C1273.4 318.434 1274.58 318.658 1275.24 318.718C1276.76 318.928 1279.07 319.212 1282.15 319.571C1282.9 319.631 1283.27 319.885 1283.27 320.334C1283.27 321.531 1283.17 323.341 1282.96 325.765C1282.78 328.188 1282.69 330.014 1282.69 331.24C1282.69 332.707 1283.12 333.44 1283.99 333.44C1285.04 333.44 1286.62 333.395 1288.75 333.305C1290.87 333.215 1292.47 333.17 1293.55 333.17C1294.21 333.17 1294.54 333.395 1294.54 333.844C1294.54 334.532 1294.46 335.564 1294.31 336.94C1294.16 338.317 1294.09 339.349 1294.09 340.037C1294.09 340.755 1294.1 341.803 1294.13 343.179C1294.16 344.555 1294.18 345.603 1294.18 346.321C1294.18 346.949 1293.74 347.263 1292.88 347.263C1292.28 347.263 1291.28 347.248 1289.87 347.218C1288.46 347.159 1287.46 347.129 1286.86 347.129H1283.5C1283.05 347.129 1282.82 347.787 1282.82 349.104C1282.82 349.822 1282.82 350.884 1282.82 352.29C1282.85 353.726 1282.87 354.789 1282.87 355.477C1282.87 357.99 1283.15 359.726 1283.72 360.683C1284.53 361.97 1286.11 362.613 1288.48 362.613C1289.23 362.613 1290.29 362.449 1291.67 362.119C1293.07 361.76 1294.06 361.581 1294.63 361.581C1295.26 361.581 1295.57 361.91 1295.57 362.568ZM1366.44 353.637C1366.44 360.459 1364.34 365.994 1360.16 370.243C1356 374.492 1350.52 376.616 1343.73 376.616C1337.15 376.616 1331.73 374.522 1327.48 370.333C1323.23 366.144 1321.11 360.758 1321.11 354.175C1321.11 347.233 1323.14 341.608 1327.21 337.299C1331.28 332.961 1336.79 330.792 1343.73 330.792C1350.49 330.792 1355.97 332.916 1360.16 337.165C1364.34 341.384 1366.44 346.874 1366.44 353.637ZM1351.72 353.637C1351.72 351.273 1350.98 349.193 1349.52 347.398C1348.05 345.573 1346.15 344.66 1343.82 344.66C1341.45 344.66 1339.51 345.588 1337.98 347.443C1336.55 349.178 1335.83 351.243 1335.83 353.637C1335.83 356.06 1336.55 358.14 1337.98 359.875C1339.51 361.73 1341.45 362.658 1343.82 362.658C1346.15 362.658 1348.08 361.73 1349.61 359.875C1351.01 358.14 1351.72 356.06 1351.72 353.637ZM1421.42 354.13C1421.42 360.534 1419.53 365.845 1415.76 370.064C1411.87 374.432 1406.77 376.616 1400.46 376.616C1398.16 376.616 1395.69 376.048 1393.05 374.911C1390.42 373.774 1389.22 373.205 1389.46 373.205C1389.07 373.205 1388.88 373.654 1388.88 374.552C1388.88 376.078 1388.95 378.367 1389.1 381.419C1389.25 384.501 1389.33 386.805 1389.33 388.331C1389.33 389.288 1388.84 389.767 1387.85 389.767L1378.69 389.812C1376.63 389.812 1375.3 389.737 1374.7 389.587C1373.8 389.378 1373.35 388.824 1373.35 387.927L1373.44 353.367C1373.44 346.396 1372.92 340.516 1371.87 335.729C1371.81 335.429 1371.78 335.175 1371.78 334.966C1371.78 334.517 1371.96 334.218 1372.32 334.068C1373.49 333.619 1375.71 333.14 1379.01 332.632C1382.21 332.123 1384.53 331.869 1385.96 331.869C1387.13 331.869 1387.79 332.647 1387.94 334.203C1388.12 335.729 1388.33 336.492 1388.57 336.492C1388.27 336.492 1389.54 335.684 1392.38 334.068C1395.25 332.422 1397.86 331.599 1400.19 331.599C1406.68 331.599 1411.87 333.739 1415.76 338.018C1419.53 342.147 1421.42 347.518 1421.42 354.13ZM1404.77 354.041C1404.77 351.647 1404.04 349.552 1402.57 347.757C1400.98 345.872 1399.02 344.929 1396.69 344.929C1394.3 344.929 1392.38 345.872 1390.94 347.757C1389.69 349.463 1389.06 351.557 1389.06 354.041C1389.06 356.584 1389.72 358.693 1391.03 360.369C1392.44 362.194 1394.39 363.107 1396.87 363.107C1402.14 363.107 1404.77 360.085 1404.77 354.041ZM1468.41 351.348C1468.41 354.37 1467.44 356.09 1465.49 356.509C1465.17 356.569 1462.07 356.898 1456.2 357.497C1452.67 357.886 1447.41 358.349 1440.41 358.888C1440.82 360.833 1442.1 362.314 1444.22 363.331C1445.96 364.169 1447.93 364.588 1450.14 364.588C1452.81 364.588 1455.49 363.87 1458.18 362.434C1459.32 361.715 1460.45 360.997 1461.59 360.279C1462.22 360.578 1463.27 362.104 1464.73 364.857C1466.23 367.61 1466.98 369.36 1466.98 370.108C1466.98 370.318 1466.75 370.662 1466.3 371.141C1462.65 375.06 1456.98 377.02 1449.29 377.02C1442.17 377.02 1436.43 374.941 1432.06 370.782C1427.57 366.563 1425.32 360.923 1425.32 353.861C1425.32 346.979 1427.33 341.339 1431.34 336.94C1435.47 332.392 1440.94 330.118 1447.77 330.118C1453.51 330.118 1458.39 332.213 1462.4 336.402C1466.41 340.591 1468.41 345.573 1468.41 351.348ZM1452.7 348.61C1452.7 346.755 1452.04 345.124 1450.73 343.718C1449.41 342.311 1447.84 341.608 1446.02 341.608C1444.13 341.608 1442.57 342.401 1441.35 343.987C1440.21 345.453 1439.64 347.174 1439.64 349.148C1439.64 349.956 1440.06 350.36 1440.9 350.36C1443.11 350.36 1446.55 350.016 1451.22 349.328C1452.21 349.178 1452.7 348.939 1452.7 348.61ZM1517.96 374.417C1517.96 375.225 1517.54 375.689 1516.7 375.809C1515.87 375.928 1513.68 375.988 1510.15 375.988C1506.38 375.988 1504.05 375.898 1503.15 375.719C1502.25 375.539 1501.8 374.926 1501.8 373.879C1501.8 372.472 1501.85 370.348 1501.94 367.505C1502.03 364.663 1502.07 362.523 1502.07 361.087C1502.07 359.98 1502.04 358.334 1501.98 356.15C1501.92 353.936 1501.89 352.275 1501.89 351.168C1501.89 347.069 1500.11 345.019 1496.55 345.019C1495.39 345.019 1494.02 345.528 1492.47 346.545C1490.79 347.682 1489.96 348.804 1489.96 349.911V374.148C1489.96 375.135 1489.49 375.689 1488.56 375.809C1487.52 375.928 1485.38 375.988 1482.15 375.988C1478.64 375.988 1476.37 375.898 1475.32 375.719C1474.4 375.569 1473.93 375.075 1473.93 374.238C1473.93 371.904 1473.95 368.388 1473.98 363.69C1474.01 358.993 1474.02 355.462 1474.02 353.098C1474.02 345.648 1473.44 339.798 1472.27 335.549C1472.21 335.28 1472.18 335.055 1472.18 334.876C1472.18 334.397 1472.41 334.068 1472.85 333.888C1474.74 333.679 1477.25 333.35 1480.4 332.901C1485.15 331.973 1487.83 331.51 1488.43 331.51C1488.76 331.51 1489.01 332.527 1489.19 334.562C1489.37 336.566 1489.63 337.569 1489.96 337.569C1489.63 337.569 1491.23 336.536 1494.76 334.472C1498.32 332.377 1501.43 331.33 1504.09 331.33C1507.89 331.33 1511.06 332.228 1513.61 334.023C1516.45 336.088 1517.87 338.96 1517.87 342.64V356.958C1517.87 358.903 1517.89 361.82 1517.92 365.71C1517.95 369.57 1517.96 372.472 1517.96 374.417ZM1543.28 321.77C1543.28 326.977 1540.34 329.58 1534.48 329.58C1531.96 329.58 1529.89 328.921 1528.24 327.605C1526.44 326.169 1525.55 324.224 1525.55 321.77C1525.55 319.436 1526.47 317.521 1528.33 316.025C1530.04 314.649 1532.08 313.961 1534.48 313.961C1536.81 313.961 1538.83 314.664 1540.54 316.07C1542.36 317.566 1543.28 319.466 1543.28 321.77ZM1542.11 355.118C1542.11 357.302 1542.15 360.563 1542.24 364.902C1542.33 369.211 1542.38 372.442 1542.38 374.597C1542.38 375.225 1542 375.599 1541.26 375.719C1540.24 375.898 1537.95 375.988 1534.39 375.988C1530.8 375.988 1528.49 375.898 1527.48 375.719C1526.82 375.599 1526.41 375.405 1526.26 375.135C1526.21 375.016 1526.18 374.567 1526.18 373.789C1526.18 371.724 1526.22 368.627 1526.31 364.498C1526.4 360.339 1526.44 357.212 1526.44 355.118C1526.44 346.62 1526.12 339.858 1525.46 334.831C1525.4 334.352 1525.37 334.038 1525.37 333.888C1525.37 333.29 1525.77 332.991 1526.58 332.991C1527.42 332.991 1528.69 333.081 1530.39 333.26C1532.13 333.44 1533.43 333.529 1534.3 333.529C1535.17 333.529 1536.47 333.455 1538.2 333.305C1539.94 333.155 1541.24 333.081 1542.11 333.081C1542.83 333.081 1543.19 333.38 1543.19 333.978C1543.19 334.098 1543.16 334.382 1543.1 334.831C1542.44 340.666 1542.11 347.428 1542.11 355.118ZM1595.43 374.417C1595.43 375.225 1595.01 375.689 1594.17 375.809C1593.33 375.928 1591.15 375.988 1587.62 375.988C1583.85 375.988 1581.52 375.898 1580.62 375.719C1579.72 375.539 1579.27 374.926 1579.27 373.879C1579.27 372.472 1579.32 370.348 1579.41 367.505C1579.5 364.663 1579.54 362.523 1579.54 361.087C1579.54 359.98 1579.51 358.334 1579.45 356.15C1579.39 353.936 1579.36 352.275 1579.36 351.168C1579.36 347.069 1577.58 345.019 1574.02 345.019C1572.85 345.019 1571.49 345.528 1569.94 346.545C1568.26 347.682 1567.42 348.804 1567.42 349.911V374.148C1567.42 375.135 1566.96 375.689 1566.03 375.809C1564.98 375.928 1562.84 375.988 1559.61 375.988C1556.11 375.988 1553.84 375.898 1552.79 375.719C1551.86 375.569 1551.4 375.075 1551.4 374.238C1551.4 371.904 1551.41 368.388 1551.44 363.69C1551.47 358.993 1551.49 355.462 1551.49 353.098C1551.49 345.648 1550.91 339.798 1549.74 335.549C1549.68 335.28 1549.65 335.055 1549.65 334.876C1549.65 334.397 1549.87 334.068 1550.32 333.888C1552.21 333.679 1554.72 333.35 1557.86 332.901C1562.62 331.973 1565.3 331.51 1565.9 331.51C1566.23 331.51 1566.48 332.527 1566.66 334.562C1566.84 336.566 1567.09 337.569 1567.42 337.569C1567.09 337.569 1568.69 336.536 1572.22 334.472C1575.79 332.377 1578.9 331.33 1581.56 331.33C1585.36 331.33 1588.53 332.228 1591.07 334.023C1593.92 336.088 1595.34 338.96 1595.34 342.64V356.958C1595.34 358.903 1595.35 361.82 1595.38 365.71C1595.41 369.57 1595.43 372.472 1595.43 374.417ZM1647.67 364.049C1647.67 372.577 1645.88 378.696 1642.29 382.406C1638.58 386.206 1632.41 388.106 1623.79 388.106C1621.28 388.106 1617.85 387.702 1613.52 386.894C1607.98 385.877 1605.21 384.68 1605.21 383.304C1605.21 382.735 1605.86 379.803 1607.14 374.507C1607.35 373.669 1607.68 373.25 1608.13 373.25C1608.28 373.28 1608.44 373.34 1608.62 373.43C1613.23 375.704 1617.5 376.841 1621.42 376.841C1623.57 376.841 1625.71 376.302 1627.83 375.225C1630.41 373.938 1631.69 372.323 1631.69 370.378V367.371C1628.64 370.243 1624.72 371.679 1619.93 371.679C1614.31 371.679 1609.69 369.66 1606.07 365.62C1602.56 361.73 1600.81 356.943 1600.81 351.258C1600.81 345.543 1602.49 340.8 1605.84 337.03C1609.34 333.11 1613.92 331.151 1619.58 331.151C1624.09 331.151 1627.55 332.766 1629.94 335.998C1630.42 336.656 1630.75 336.985 1630.93 336.985C1631.2 336.985 1631.33 336.447 1631.33 335.37C1631.33 332.976 1631.6 331.779 1632.14 331.779C1632.62 331.779 1635.21 332.033 1639.91 332.542C1644.6 333.021 1647.04 333.29 1647.22 333.35C1647.73 333.529 1647.99 333.918 1647.99 334.517C1647.99 336.581 1647.91 339.663 1647.76 343.763C1647.64 347.862 1647.58 350.944 1647.58 353.008C1647.58 354.235 1647.6 356.075 1647.63 358.529C1647.66 360.982 1647.67 362.823 1647.67 364.049ZM1632.14 351.617C1632.14 349.433 1631.41 347.548 1629.94 345.962C1628.51 344.346 1626.7 343.538 1624.51 343.538C1622.33 343.538 1620.5 344.361 1619.04 346.007C1617.6 347.622 1616.88 349.522 1616.88 351.707C1616.88 353.891 1617.62 355.776 1619.08 357.362C1620.58 358.948 1622.39 359.741 1624.51 359.741C1626.7 359.741 1628.51 358.933 1629.94 357.317C1631.41 355.701 1632.14 353.801 1632.14 351.617ZM1706.06 346.77C1706.06 347.488 1705.67 347.847 1704.9 347.847C1701.67 347.847 1699.12 347.757 1697.27 347.578C1697.36 349.822 1697.45 352.948 1697.54 356.958C1697.57 358.663 1697.7 361.626 1697.94 365.845C1698.15 369.645 1698.25 372.607 1698.25 374.731C1698.25 375.36 1697.84 375.719 1697 375.809C1695.98 375.928 1693.44 375.988 1689.37 375.988C1685.99 375.988 1683.79 375.898 1682.77 375.719C1681.75 375.539 1681.24 374.926 1681.24 373.879V349.148C1681.24 348.281 1680.65 347.847 1679.45 347.847C1679.24 347.847 1678.89 347.862 1678.42 347.892C1677.97 347.922 1677.64 347.937 1677.43 347.937C1676.59 347.937 1676.16 347.697 1676.13 347.218C1675.86 344.615 1675.72 340.83 1675.72 335.863C1675.72 334.756 1676.29 334.083 1677.43 333.844C1678.45 333.754 1679.48 333.679 1680.53 333.619C1680.38 331.225 1680.3 329.355 1680.3 328.009C1680.3 322.862 1681.3 319.122 1683.31 316.788C1687.29 312.15 1693.72 309.832 1702.61 309.832C1703.21 309.832 1703.57 310.011 1703.68 310.37C1703.92 311.717 1704.27 313.706 1704.72 316.339C1704.75 316.579 1704.94 317.417 1705.3 318.853C1705.57 319.96 1705.7 320.813 1705.7 321.411C1705.7 322.129 1704.64 322.593 1702.52 322.802C1700.06 323.072 1698.55 323.521 1697.98 324.149C1697 325.226 1696.5 327.336 1696.5 330.477C1696.5 331.465 1696.58 332.392 1696.73 333.26C1697.57 333.26 1698.87 333.23 1700.63 333.17C1702.4 333.11 1703.73 333.081 1704.63 333.081C1705.52 333.081 1705.97 333.41 1705.97 334.068C1705.97 335.474 1705.99 337.599 1706.02 340.441C1706.05 343.254 1706.06 345.363 1706.06 346.77ZM1752.07 351.348C1752.07 354.37 1751.1 356.09 1749.15 356.509C1748.82 356.569 1745.72 356.898 1739.86 357.497C1736.33 357.886 1731.06 358.349 1724.06 358.888C1724.48 360.833 1725.75 362.314 1727.88 363.331C1729.61 364.169 1731.59 364.588 1733.8 364.588C1736.46 364.588 1739.14 363.87 1741.83 362.434C1742.97 361.715 1744.11 360.997 1745.25 360.279C1745.87 360.578 1746.92 362.104 1748.39 364.857C1749.88 367.61 1750.63 369.36 1750.63 370.108C1750.63 370.318 1750.41 370.662 1749.96 371.141C1746.31 375.06 1740.64 377.02 1732.95 377.02C1725.83 377.02 1720.08 374.941 1715.71 370.782C1711.22 366.563 1708.98 360.923 1708.98 353.861C1708.98 346.979 1710.99 341.339 1715 336.94C1719.12 332.392 1724.6 330.118 1731.42 330.118C1737.17 330.118 1742.04 332.213 1746.05 336.402C1750.06 340.591 1752.07 345.573 1752.07 351.348ZM1736.36 348.61C1736.36 346.755 1735.7 345.124 1734.38 343.718C1733.07 342.311 1731.5 341.608 1729.67 341.608C1727.79 341.608 1726.23 342.401 1725 343.987C1723.87 345.453 1723.3 347.174 1723.3 349.148C1723.3 349.956 1723.72 350.36 1724.55 350.36C1726.77 350.36 1730.21 350.016 1734.88 349.328C1735.87 349.178 1736.36 348.939 1736.36 348.61ZM1798.12 351.348C1798.12 354.37 1797.14 356.09 1795.2 356.509C1794.87 356.569 1791.77 356.898 1785.91 357.497C1782.38 357.886 1777.11 358.349 1770.11 358.888C1770.53 360.833 1771.8 362.314 1773.93 363.331C1775.66 364.169 1777.64 364.588 1779.85 364.588C1782.51 364.588 1785.19 363.87 1787.88 362.434C1789.02 361.715 1790.16 360.997 1791.29 360.279C1791.92 360.578 1792.97 362.104 1794.44 364.857C1795.93 367.61 1796.68 369.36 1796.68 370.108C1796.68 370.318 1796.46 370.662 1796.01 371.141C1792.36 375.06 1786.69 377.02 1779 377.02C1771.88 377.02 1766.13 374.941 1761.76 370.782C1757.27 366.563 1755.03 360.923 1755.03 353.861C1755.03 346.979 1757.03 341.339 1761.04 336.94C1765.17 332.392 1770.65 330.118 1777.47 330.118C1783.22 330.118 1788.09 332.213 1792.1 336.402C1796.11 340.591 1798.12 345.573 1798.12 351.348ZM1782.41 348.61C1782.41 346.755 1781.75 345.124 1780.43 343.718C1779.12 342.311 1777.55 341.608 1775.72 341.608C1773.84 341.608 1772.28 342.401 1771.05 343.987C1769.92 345.453 1769.35 347.174 1769.35 349.148C1769.35 349.956 1769.77 350.36 1770.6 350.36C1772.82 350.36 1776.26 350.016 1780.93 349.328C1781.91 349.178 1782.41 348.939 1782.41 348.61Z" fill="#484646"/>
<path d="M1036.67 567.37C1036.67 567.909 1036.3 568.283 1035.55 568.492C1034.65 568.732 1031.87 568.851 1027.2 568.851C1022.92 568.851 1020.17 568.732 1018.94 568.492C1017.93 568.283 1017.28 567.61 1017.01 566.472C1016 562.164 1015.2 559.86 1014.64 559.561C1014.16 559.351 1010.15 559.246 1002.61 559.246C997.52 559.246 994.812 559.381 994.483 559.65C993.975 560.129 993.406 561.73 992.778 564.453C992.209 566.936 991.521 568.283 990.713 568.492C989.696 568.732 986.285 568.851 980.48 568.851C975.902 568.851 973.613 568.417 973.613 567.55C973.613 566.772 976.994 557.212 983.756 538.87C991.087 519.032 995.067 508.125 995.695 506.151C996.054 505.014 996.473 504.445 996.952 504.445C997.76 504.445 999.001 504.52 1000.68 504.67C1002.38 504.819 1003.65 504.894 1004.49 504.894C1005.3 504.894 1006.48 504.849 1008.04 504.759C1009.62 504.64 1010.81 504.58 1011.58 504.58C1012.15 504.58 1012.68 505.073 1013.15 506.061C1014.62 509.203 1018.9 519.974 1025.99 538.376C1033.11 556.898 1036.67 566.562 1036.67 567.37ZM1004.85 526.482C1004.22 527.799 1003.16 530.656 1001.66 535.055C1000.05 539.723 999.241 542.46 999.241 543.268C999.241 543.807 1000.14 544.106 1001.93 544.166C1002.86 544.226 1004.39 544.256 1006.51 544.256C1008.49 544.256 1009.58 544.016 1009.79 543.538C1009.85 543.388 1009.88 543.179 1009.88 542.909C1009.88 541.922 1009.19 539.199 1007.81 534.741C1006.47 530.432 1005.48 527.679 1004.85 526.482ZM1087.17 527.694C1087.17 529.908 1087.06 533.23 1086.85 537.658C1086.64 542.086 1086.54 545.408 1086.54 547.622C1086.54 549.776 1086.61 553.008 1086.76 557.316C1086.91 561.625 1086.99 564.842 1086.99 566.966C1086.99 567.774 1086.61 568.283 1085.86 568.492C1084.73 568.791 1082.32 568.941 1078.64 568.941C1075.38 568.941 1073.1 568.851 1071.82 568.672C1071.25 568.582 1070.89 568.223 1070.74 567.595C1070.65 566.697 1070.56 565.799 1070.47 564.902C1070.32 563.525 1070.11 562.837 1069.84 562.837C1070.26 562.837 1068.75 563.854 1065.31 565.889C1061.87 567.924 1058.74 568.941 1055.93 568.941C1048 568.941 1043.3 565.365 1041.83 558.214C1041.18 554.893 1040.85 550.075 1040.85 543.762C1040.85 536.94 1041.4 531.554 1042.51 527.604C1042.84 526.378 1043.45 525.764 1044.35 525.764C1045.72 525.764 1047.82 525.779 1050.63 525.809C1053.44 525.839 1055.54 525.854 1056.91 525.854C1057.84 525.854 1058.31 526.243 1058.31 527.021C1058.31 527.23 1058.28 527.545 1058.22 527.963C1057.59 532.033 1057.27 536.162 1057.27 540.351C1057.27 545.557 1057.44 549.118 1057.77 551.033C1058.31 554.324 1060.27 555.97 1063.65 555.97C1064.96 555.97 1066.38 555.387 1067.91 554.22C1069.47 553.053 1070.27 551.841 1070.33 550.584C1070.39 549.477 1070.42 541.967 1070.42 528.053C1070.42 527.066 1070.5 526.482 1070.65 526.303C1070.83 526.004 1071.37 525.854 1072.26 525.854C1073.73 525.854 1075.93 525.869 1078.86 525.899C1081.82 525.929 1084.04 525.944 1085.5 525.944C1086.4 525.944 1086.93 526.168 1087.08 526.617C1087.14 526.856 1087.17 527.215 1087.17 527.694ZM1124.6 555.342C1124.6 556.239 1124.48 557.601 1124.24 559.426C1124.03 561.251 1123.92 562.598 1123.92 563.465C1123.92 564.303 1123.83 564.842 1123.65 565.081C1123.48 565.321 1122.98 565.665 1122.17 566.113C1118.31 568.238 1114.03 569.3 1109.34 569.3C1100.69 569.3 1096.37 565.994 1096.37 559.381C1096.37 557.406 1096.44 554.444 1096.59 550.494C1096.74 546.515 1096.82 543.538 1096.82 541.563C1096.82 540.246 1096.05 539.588 1094.53 539.588C1094.41 539.588 1094.21 539.588 1093.94 539.588C1093.67 539.618 1093.48 539.633 1093.36 539.633C1092.22 539.633 1091.65 539.229 1091.65 538.421C1091.65 537.942 1091.68 537.209 1091.74 536.222C1091.83 535.234 1091.88 534.501 1091.88 534.023C1091.88 533.394 1091.83 532.437 1091.74 531.15C1091.68 529.863 1091.65 528.906 1091.65 528.278C1091.65 527.679 1092.61 527.35 1094.53 527.29C1095.6 527.26 1096.19 526.961 1096.28 526.393C1096.46 525.256 1096.52 523.46 1096.46 521.007C1096.34 517.147 1096.28 515.307 1096.28 515.486C1096.28 512.015 1096.61 510.28 1097.26 510.28C1098.07 510.28 1099.22 510.459 1100.72 510.818C1102.43 511.207 1103.61 511.432 1104.27 511.492C1105.79 511.701 1108.1 511.985 1111.18 512.344C1111.93 512.404 1112.3 512.659 1112.3 513.107C1112.3 514.304 1112.19 516.115 1111.99 518.538C1111.81 520.962 1111.72 522.787 1111.72 524.014C1111.72 525.48 1112.15 526.213 1113.02 526.213C1114.06 526.213 1115.65 526.168 1117.78 526.078C1119.9 525.989 1121.5 525.944 1122.58 525.944C1123.24 525.944 1123.56 526.168 1123.56 526.617C1123.56 527.305 1123.49 528.337 1123.34 529.714C1123.19 531.09 1123.12 532.123 1123.12 532.811C1123.12 533.529 1123.13 534.576 1123.16 535.953C1123.19 537.329 1123.21 538.376 1123.21 539.094C1123.21 539.723 1122.77 540.037 1121.9 540.037C1121.31 540.037 1120.3 540.022 1118.9 539.992C1117.49 539.932 1116.49 539.902 1115.89 539.902H1112.52C1112.07 539.902 1111.85 540.56 1111.85 541.877C1111.85 542.595 1111.85 543.657 1111.85 545.064C1111.88 546.5 1111.9 547.562 1111.9 548.25C1111.9 550.764 1112.18 552.499 1112.75 553.457C1113.56 554.743 1115.14 555.387 1117.51 555.387C1118.25 555.387 1119.32 555.222 1120.69 554.893C1122.1 554.534 1123.09 554.354 1123.65 554.354C1124.28 554.354 1124.6 554.683 1124.6 555.342ZM1172.49 546.41C1172.49 553.232 1170.39 558.768 1166.2 563.017C1162.04 567.265 1156.57 569.39 1149.78 569.39C1143.19 569.39 1137.78 567.295 1133.53 563.106C1129.28 558.917 1127.16 553.531 1127.16 546.949C1127.16 540.007 1129.19 534.382 1133.26 530.073C1137.33 525.734 1142.83 523.565 1149.78 523.565C1156.54 523.565 1162.01 525.689 1166.2 529.938C1170.39 534.157 1172.49 539.648 1172.49 546.41ZM1157.77 546.41C1157.77 544.046 1157.03 541.967 1155.57 540.171C1154.1 538.346 1152.2 537.434 1149.87 537.434C1147.5 537.434 1145.56 538.361 1144.03 540.216C1142.59 541.952 1141.88 544.016 1141.88 546.41C1141.88 548.834 1142.59 550.913 1144.03 552.649C1145.56 554.504 1147.5 555.431 1149.87 555.431C1152.2 555.431 1154.13 554.504 1155.66 552.649C1157.06 550.913 1157.77 548.834 1157.77 546.41ZM1208.89 547.846C1208.89 553.92 1206.33 559.127 1201.21 563.465C1196.72 567.295 1191.26 569.734 1184.83 570.781C1184.59 570.811 1184.4 570.826 1184.25 570.826C1183.56 570.826 1182.03 568.732 1179.67 564.543C1177.3 560.324 1176.12 557.75 1176.12 556.823C1176.12 556.494 1176.35 556.284 1176.8 556.194C1181.13 555.207 1184.01 554.369 1185.41 553.681C1188.52 552.125 1190.08 549.821 1190.08 546.769C1190.08 544.824 1189.06 542.655 1187.03 540.261C1183.5 536.192 1181.58 533.933 1181.28 533.484C1179.22 530.372 1178.19 526.931 1178.19 523.161C1178.19 517.685 1180.72 513.137 1185.77 509.517C1189.9 506.525 1194.97 504.58 1200.99 503.682C1201.32 503.652 1201.57 503.637 1201.75 503.637C1202.2 503.637 1202.56 503.996 1202.83 504.714C1203.6 506.899 1205.42 510.848 1208.26 516.563C1208.35 516.743 1208.39 516.892 1208.39 517.012C1208.39 517.521 1208.12 517.775 1207.58 517.775C1207.35 517.775 1206.94 517.73 1206.37 517.641C1205.8 517.551 1205.37 517.506 1205.07 517.506C1202.92 517.506 1201.03 518 1199.42 518.987C1197.47 520.124 1196.5 521.71 1196.5 523.745C1196.5 525.57 1197.58 527.814 1199.73 530.477C1203.53 535.264 1205.52 537.778 1205.7 538.017C1207.82 541.308 1208.89 544.585 1208.89 547.846ZM1261.67 552.11V558.483C1261.67 560.907 1261.74 564.572 1261.89 569.48C1262.04 574.417 1262.12 578.097 1262.12 580.521C1262.12 581.418 1261.65 581.912 1260.73 582.002C1259.44 582.121 1257.3 582.181 1254.31 582.181C1253.5 582.181 1252.29 582.241 1250.67 582.361C1249.06 582.481 1247.84 582.54 1247.04 582.54C1246.44 582.54 1246.14 582.092 1246.14 581.194C1246.14 579.429 1246.15 576.765 1246.18 573.205C1246.21 569.674 1246.23 567.026 1246.23 565.261C1246.23 564.842 1246.09 564.632 1245.82 564.632C1246.3 564.632 1245.09 565.455 1242.19 567.101C1239.29 568.717 1236.49 569.524 1233.8 569.524C1227.87 569.524 1223.02 567.206 1219.25 562.568C1215.72 558.229 1213.96 553.038 1213.96 546.994C1213.96 540.501 1215.66 535.085 1219.07 530.746C1222.75 526.078 1227.75 523.745 1234.07 523.745C1238.88 523.745 1242.53 525.121 1245.02 527.874C1245.2 528.113 1245.5 528.382 1245.91 528.682C1246.18 528.412 1246.33 527.814 1246.36 526.886C1246.36 526.228 1246.36 525.585 1246.36 524.956C1246.45 523.819 1246.96 523.251 1247.89 523.251C1250.34 523.251 1253.11 523.4 1256.19 523.7C1260.5 524.089 1262.66 524.612 1262.66 525.271C1262.66 525.271 1262.63 525.615 1262.57 526.303C1261.97 534.322 1261.67 542.924 1261.67 552.11ZM1245.96 546.231C1245.96 543.627 1245.29 541.503 1243.94 539.857C1242.5 538.062 1240.5 537.164 1237.93 537.164C1235.53 537.164 1233.62 538.077 1232.18 539.902C1230.86 541.608 1230.21 543.687 1230.21 546.141C1230.21 548.654 1230.94 550.749 1232.4 552.424C1233.96 554.19 1235.97 555.072 1238.42 555.072C1240.87 555.072 1242.77 554.205 1244.12 552.469C1245.35 550.883 1245.96 548.804 1245.96 546.231ZM1316.6 527.694C1316.6 529.908 1316.5 533.23 1316.29 537.658C1316.08 542.086 1315.98 545.408 1315.98 547.622C1315.98 549.776 1316.05 553.008 1316.2 557.316C1316.35 561.625 1316.42 564.842 1316.42 566.966C1316.42 567.774 1316.05 568.283 1315.3 568.492C1314.17 568.791 1311.76 568.941 1308.08 568.941C1304.81 568.941 1302.54 568.851 1301.25 568.672C1300.69 568.582 1300.33 568.223 1300.18 567.595C1300.09 566.697 1300 565.799 1299.91 564.902C1299.76 563.525 1299.55 562.837 1299.28 562.837C1299.7 562.837 1298.19 563.854 1294.75 565.889C1291.31 567.924 1288.18 568.941 1285.37 568.941C1277.44 568.941 1272.74 565.365 1271.27 558.214C1270.61 554.893 1270.29 550.075 1270.29 543.762C1270.29 536.94 1270.84 531.554 1271.95 527.604C1272.27 526.378 1272.89 525.764 1273.79 525.764C1275.16 525.764 1277.26 525.779 1280.07 525.809C1282.88 525.839 1284.98 525.854 1286.35 525.854C1287.28 525.854 1287.74 526.243 1287.74 527.021C1287.74 527.23 1287.71 527.545 1287.65 527.963C1287.03 532.033 1286.71 536.162 1286.71 540.351C1286.71 545.557 1286.88 549.118 1287.21 551.033C1287.74 554.324 1289.7 555.97 1293.09 555.97C1294.4 555.97 1295.82 555.387 1297.35 554.22C1298.91 553.053 1299.71 551.841 1299.77 550.584C1299.83 549.477 1299.86 541.967 1299.86 528.053C1299.86 527.066 1299.94 526.482 1300.09 526.303C1300.27 526.004 1300.81 525.854 1301.7 525.854C1303.17 525.854 1305.37 525.869 1308.3 525.899C1311.26 525.929 1313.48 525.944 1314.94 525.944C1315.84 525.944 1316.36 526.168 1316.51 526.617C1316.57 526.856 1316.6 527.215 1316.6 527.694ZM1353.77 540.531C1353.77 541.697 1353.12 542.281 1351.84 542.281C1351.27 542.281 1350.43 542.251 1349.32 542.191C1348.25 542.101 1347.44 542.057 1346.9 542.057C1344.42 542.057 1342.73 542.445 1341.83 543.223C1340.93 544.001 1340.48 545.572 1340.48 547.936C1340.48 549.223 1340.5 551.183 1340.53 553.816C1340.59 556.419 1340.62 558.364 1340.62 559.65C1340.62 560.518 1340.68 561.82 1340.8 563.555C1340.91 565.261 1340.97 566.532 1340.97 567.37C1340.97 568.088 1340.48 568.492 1339.49 568.582C1338.06 568.702 1335.86 568.761 1332.9 568.761C1330.05 568.761 1327.78 568.672 1326.07 568.492C1325.09 568.373 1324.59 567.879 1324.59 567.011C1324.59 564.617 1324.61 561.042 1324.64 556.284C1324.67 551.497 1324.68 547.906 1324.68 545.512C1324.68 538.481 1324.04 532.691 1322.75 528.143C1322.69 527.874 1322.66 527.649 1322.66 527.47C1322.66 527.021 1322.89 526.722 1323.34 526.572C1324.98 526.393 1327.39 526.063 1330.56 525.585C1335.29 524.657 1337.73 524.193 1337.88 524.193C1338.42 524.193 1338.76 525.136 1338.91 527.021C1339.06 528.906 1339.33 529.849 1339.72 529.849C1339.3 529.849 1340.53 529.071 1343.4 527.515C1346.27 525.929 1349.04 525.136 1351.7 525.136C1353.38 525.136 1354.22 525.495 1354.22 526.213C1354.22 527.081 1354.13 528.308 1353.95 529.893C1353.77 531.599 1353.66 532.826 1353.63 533.574C1353.63 534.441 1353.65 535.593 1353.68 537.03C1353.74 538.795 1353.77 539.962 1353.77 540.531ZM1400.13 544.121C1400.13 547.143 1399.16 548.864 1397.21 549.283C1396.88 549.342 1393.79 549.672 1387.92 550.27C1384.39 550.659 1379.12 551.123 1372.12 551.661C1372.54 553.606 1373.81 555.087 1375.94 556.105C1377.67 556.942 1379.65 557.361 1381.86 557.361C1384.53 557.361 1387.2 556.643 1389.9 555.207C1391.03 554.489 1392.17 553.771 1393.31 553.053C1393.94 553.352 1394.98 554.878 1396.45 557.631C1397.95 560.383 1398.69 562.134 1398.69 562.882C1398.69 563.091 1398.47 563.435 1398.02 563.914C1394.37 567.834 1388.7 569.794 1381.01 569.794C1373.89 569.794 1368.14 567.714 1363.78 563.555C1359.29 559.336 1357.04 553.696 1357.04 546.634C1357.04 539.753 1359.05 534.112 1363.06 529.714C1367.19 525.166 1372.66 522.892 1379.48 522.892C1385.23 522.892 1390.11 524.986 1394.12 529.175C1398.12 533.364 1400.13 538.346 1400.13 544.121ZM1384.42 541.383C1384.42 539.528 1383.76 537.897 1382.45 536.491C1381.13 535.085 1379.56 534.382 1377.73 534.382C1375.85 534.382 1374.29 535.175 1373.07 536.76C1371.93 538.227 1371.36 539.947 1371.36 541.922C1371.36 542.73 1371.78 543.134 1372.62 543.134C1374.83 543.134 1378.27 542.79 1382.94 542.101C1383.93 541.952 1384.42 541.712 1384.42 541.383ZM1448.24 546.41C1448.24 553.232 1446.15 558.768 1441.96 563.017C1437.8 567.265 1432.33 569.39 1425.53 569.39C1418.95 569.39 1413.53 567.295 1409.29 563.106C1405.04 558.917 1402.91 553.531 1402.91 546.949C1402.91 540.007 1404.95 534.382 1409.02 530.073C1413.09 525.734 1418.59 523.565 1425.53 523.565C1432.3 523.565 1437.77 525.689 1441.96 529.938C1446.15 534.157 1448.24 539.648 1448.24 546.41ZM1433.52 546.41C1433.52 544.046 1432.79 541.967 1431.32 540.171C1429.86 538.346 1427.96 537.434 1425.62 537.434C1423.26 537.434 1421.31 538.361 1419.79 540.216C1418.35 541.952 1417.63 544.016 1417.63 546.41C1417.63 548.834 1418.35 550.913 1419.79 552.649C1421.31 554.504 1423.26 555.431 1425.62 555.431C1427.96 555.431 1429.89 554.504 1431.41 552.649C1432.82 550.913 1433.52 548.834 1433.52 546.41ZM1481.32 539.543C1481.32 540.261 1480.93 540.62 1480.15 540.62C1476.92 540.62 1474.38 540.531 1472.52 540.351C1472.61 542.595 1472.7 545.722 1472.79 549.731C1472.82 551.437 1472.96 554.399 1473.2 558.618C1473.41 562.418 1473.51 565.38 1473.51 567.505C1473.51 568.133 1473.09 568.492 1472.26 568.582C1471.24 568.702 1468.69 568.761 1464.63 568.761C1461.24 568.761 1459.05 568.672 1458.03 568.492C1457.01 568.313 1456.5 567.699 1456.5 566.652V541.922C1456.5 541.054 1455.9 540.62 1454.71 540.62C1454.5 540.62 1454.15 540.635 1453.67 540.665C1453.23 540.695 1452.9 540.71 1452.69 540.71C1451.85 540.71 1451.42 540.471 1451.39 539.992C1451.12 537.389 1450.98 533.604 1450.98 528.637C1450.98 527.53 1451.55 526.856 1452.69 526.617C1453.7 526.527 1454.74 526.452 1455.78 526.393C1455.63 523.999 1455.56 522.129 1455.56 520.782C1455.56 515.636 1456.56 511.896 1458.57 509.562C1462.55 504.924 1468.98 502.605 1477.87 502.605C1478.46 502.605 1478.82 502.784 1478.94 503.144C1479.18 504.49 1479.53 506.48 1479.98 509.113C1480.01 509.352 1480.2 510.19 1480.56 511.626C1480.83 512.733 1480.96 513.586 1480.96 514.185C1480.96 514.903 1479.9 515.366 1477.78 515.576C1475.32 515.845 1473.81 516.294 1473.24 516.922C1472.26 518 1471.76 520.109 1471.76 523.251C1471.76 524.238 1471.84 525.166 1471.99 526.034C1472.82 526.034 1474.13 526.004 1475.89 525.944C1477.66 525.884 1478.99 525.854 1479.89 525.854C1480.78 525.854 1481.23 526.183 1481.23 526.841C1481.23 528.248 1481.25 530.372 1481.28 533.215C1481.31 536.027 1481.32 538.137 1481.32 539.543ZM1513.82 539.543C1513.82 540.261 1513.43 540.62 1512.65 540.62C1509.42 540.62 1506.87 540.531 1505.02 540.351C1505.11 542.595 1505.2 545.722 1505.29 549.731C1505.32 551.437 1505.45 554.399 1505.69 558.618C1505.9 562.418 1506.01 565.38 1506.01 567.505C1506.01 568.133 1505.59 568.492 1504.75 568.582C1503.73 568.702 1501.19 568.761 1497.12 568.761C1493.74 568.761 1491.54 568.672 1490.52 568.492C1489.51 568.313 1489 567.699 1489 566.652V541.922C1489 541.054 1488.4 540.62 1487.2 540.62C1486.99 540.62 1486.65 540.635 1486.17 540.665C1485.72 540.695 1485.39 540.71 1485.18 540.71C1484.34 540.71 1483.91 540.471 1483.88 539.992C1483.61 537.389 1483.48 533.604 1483.48 528.637C1483.48 527.53 1484.04 526.856 1485.18 526.617C1486.2 526.527 1487.23 526.452 1488.28 526.393C1488.13 523.999 1488.05 522.129 1488.05 520.782C1488.05 515.636 1489.06 511.896 1491.06 509.562C1495.04 504.924 1501.47 502.605 1510.36 502.605C1510.96 502.605 1511.32 502.784 1511.44 503.144C1511.68 504.49 1512.02 506.48 1512.47 509.113C1512.5 509.352 1512.69 510.19 1513.05 511.626C1513.32 512.733 1513.46 513.586 1513.46 514.185C1513.46 514.903 1512.4 515.366 1510.27 515.576C1507.82 515.845 1506.31 516.294 1505.74 516.922C1504.75 518 1504.26 520.109 1504.26 523.251C1504.26 524.238 1504.33 525.166 1504.48 526.034C1505.32 526.034 1506.62 526.004 1508.39 525.944C1510.15 525.884 1511.48 525.854 1512.38 525.854C1513.28 525.854 1513.73 526.183 1513.73 526.841C1513.73 528.248 1513.74 530.372 1513.77 533.215C1513.8 536.027 1513.82 538.137 1513.82 539.543ZM1594.43 558.349C1594.43 558.828 1594.11 559.456 1593.48 560.234C1587.98 566.787 1580.66 570.063 1571.54 570.063C1562.2 570.063 1554.63 566.876 1548.82 560.503C1543.17 554.339 1540.34 546.56 1540.34 537.164C1540.34 528.068 1543.11 520.348 1548.65 514.005C1554.42 507.362 1561.77 504.041 1570.68 504.041C1580.38 504.041 1587.98 507.018 1593.48 512.973C1594.08 513.631 1594.38 514.215 1594.38 514.723C1594.38 515.292 1593.33 517.401 1591.24 521.052C1589.17 524.702 1587.87 526.752 1587.33 527.2C1587.09 527.44 1586.8 527.56 1586.44 527.56C1586.29 527.56 1585.54 526.961 1584.19 525.764C1582.58 524.328 1580.99 523.206 1579.43 522.398C1577.07 521.201 1574.62 520.603 1572.07 520.603C1567.68 520.603 1564.16 522.248 1561.53 525.54C1559.1 528.592 1557.89 532.362 1557.89 536.85C1557.89 541.398 1559.1 545.213 1561.53 548.295C1564.16 551.646 1567.68 553.322 1572.07 553.322C1574.68 553.322 1577.15 552.753 1579.48 551.616C1581.01 550.868 1582.56 549.821 1584.15 548.475C1585.46 547.338 1586.2 546.769 1586.35 546.769C1586.65 546.769 1586.94 546.934 1587.24 547.263C1587.72 547.801 1589.02 549.672 1591.15 552.873C1593.33 556.194 1594.43 558.02 1594.43 558.349ZM1643.75 535.953L1643.66 566.921C1643.66 567.969 1643.24 568.552 1642.4 568.672C1641.45 568.791 1639.26 568.851 1635.85 568.851C1632.56 568.851 1630.27 568.732 1628.98 568.492C1628 568.313 1627.5 567.669 1627.5 566.562C1627.5 563.989 1627.55 560.114 1627.64 554.938C1627.73 549.761 1627.77 545.886 1627.77 543.313C1627.77 539.812 1625.99 538.062 1622.43 538.062C1621.23 538.062 1619.83 538.541 1618.21 539.498C1616.45 540.545 1615.56 541.638 1615.56 542.775V553.861C1615.56 555.297 1615.59 557.466 1615.65 560.368C1615.71 563.241 1615.74 565.395 1615.74 566.832C1615.74 567.939 1615.28 568.552 1614.35 568.672C1613.43 568.791 1610.82 568.851 1606.54 568.851C1604.09 568.851 1602.32 568.732 1601.25 568.492C1600.17 568.253 1599.63 567.729 1599.63 566.921C1599.63 564.558 1599.65 561.012 1599.68 556.284C1599.71 551.527 1599.72 547.966 1599.72 545.602C1599.72 535.818 1599.62 527.724 1599.41 521.321C1599.32 519.077 1599.24 516.833 1599.18 514.589C1599.03 511.985 1598.76 509.756 1598.37 507.901C1598.29 507.512 1598.24 507.228 1598.24 507.048C1598.24 506.599 1598.46 506.3 1598.91 506.151C1599.84 505.881 1601.2 505.717 1603 505.657C1605.39 505.567 1606.78 505.492 1607.17 505.433C1612.59 504.804 1615.3 504.49 1615.3 504.49C1615.77 504.49 1616.01 504.804 1616.01 505.433C1616.01 506.39 1615.95 507.692 1615.83 509.337C1615.71 511.252 1615.65 512.554 1615.65 513.242C1615.48 520.004 1615.39 525.345 1615.39 529.265C1615.39 529.863 1615.53 530.163 1615.83 530.163C1615.89 530.163 1616.66 529.639 1618.12 528.592C1619.86 527.365 1621.52 526.393 1623.11 525.674C1625.47 524.627 1627.76 524.104 1629.97 524.104C1633.8 524.104 1637 525.106 1639.58 527.111C1642.36 529.265 1643.75 532.212 1643.75 535.953ZM1696.22 546.051C1696.22 548.355 1696.35 551.781 1696.62 556.329C1696.89 560.877 1697.03 564.288 1697.03 566.562C1697.03 567.759 1696.5 568.402 1695.46 568.492C1691.75 568.761 1687.5 568.896 1682.71 568.896C1682.14 568.896 1681.75 568.043 1681.54 566.338C1681.36 564.602 1681.14 563.72 1680.87 563.69C1680.63 563.809 1680.32 564.064 1679.93 564.453C1676.57 567.834 1672.98 569.524 1669.15 569.524C1663.32 569.524 1658.49 567.221 1654.66 562.613C1651.04 558.304 1649.23 553.157 1649.23 547.173C1649.23 540.261 1651.1 534.696 1654.84 530.477C1658.73 526.108 1664.05 523.924 1670.81 523.924C1675.51 523.924 1679.22 525.57 1681.95 528.861C1682.07 529.011 1682.17 529.086 1682.26 529.086C1682.53 529.086 1682.83 528.367 1683.16 526.931C1683.52 525.465 1683.94 524.732 1684.41 524.732C1685.52 524.732 1687.63 525.046 1690.74 525.674C1693.7 526.273 1695.83 526.782 1697.12 527.2C1697.56 527.38 1697.79 527.619 1697.79 527.919C1697.79 528.038 1697.74 528.352 1697.65 528.861C1696.7 534.277 1696.22 540.007 1696.22 546.051ZM1681.77 546.32C1681.77 543.777 1680.96 541.682 1679.34 540.037C1677.76 538.361 1675.68 537.523 1673.1 537.523C1670.53 537.523 1668.45 538.346 1666.87 539.992C1665.28 541.638 1664.49 543.747 1664.49 546.32C1664.49 548.744 1665.32 550.824 1667 552.559C1668.68 554.294 1670.71 555.162 1673.1 555.162C1675.65 555.162 1677.73 554.339 1679.34 552.694C1680.96 551.018 1681.77 548.894 1681.77 546.32ZM1734.91 540.531C1734.91 541.697 1734.26 542.281 1732.98 542.281C1732.41 542.281 1731.57 542.251 1730.46 542.191C1729.39 542.101 1728.58 542.057 1728.04 542.057C1725.56 542.057 1723.87 542.445 1722.97 543.223C1722.07 544.001 1721.62 545.572 1721.62 547.936C1721.62 549.223 1721.64 551.183 1721.67 553.816C1721.73 556.419 1721.76 558.364 1721.76 559.65C1721.76 560.518 1721.82 561.82 1721.94 563.555C1722.06 565.261 1722.12 566.532 1722.12 567.37C1722.12 568.088 1721.62 568.492 1720.63 568.582C1719.2 568.702 1717 568.761 1714.04 568.761C1711.19 568.761 1708.92 568.672 1707.21 568.492C1706.23 568.373 1705.73 567.879 1705.73 567.011C1705.73 564.617 1705.75 561.042 1705.78 556.284C1705.81 551.497 1705.82 547.906 1705.82 545.512C1705.82 538.481 1705.18 532.691 1703.89 528.143C1703.83 527.874 1703.8 527.649 1703.8 527.47C1703.8 527.021 1704.03 526.722 1704.48 526.572C1706.12 526.393 1708.53 526.063 1711.7 525.585C1716.43 524.657 1718.87 524.193 1719.02 524.193C1719.56 524.193 1719.9 525.136 1720.05 527.021C1720.2 528.906 1720.47 529.849 1720.86 529.849C1720.44 529.849 1721.67 529.071 1724.54 527.515C1727.41 525.929 1730.18 525.136 1732.84 525.136C1734.52 525.136 1735.36 525.495 1735.36 526.213C1735.36 527.081 1735.27 528.308 1735.09 529.893C1734.91 531.599 1734.8 532.826 1734.77 533.574C1734.77 534.441 1734.79 535.593 1734.82 537.03C1734.88 538.795 1734.91 539.962 1734.91 540.531ZM1784.86 556.823C1784.86 565.35 1783.07 571.469 1779.48 575.18C1775.76 578.98 1769.6 580.88 1760.98 580.88C1758.47 580.88 1755.04 580.476 1750.71 579.668C1745.17 578.651 1742.4 577.454 1742.4 576.077C1742.4 575.509 1743.05 572.576 1744.33 567.28C1744.54 566.443 1744.87 566.024 1745.32 566.024C1745.47 566.054 1745.63 566.113 1745.81 566.203C1750.42 568.477 1754.69 569.614 1758.6 569.614C1760.76 569.614 1762.9 569.076 1765.02 567.998C1767.6 566.712 1768.88 565.096 1768.88 563.151V560.144C1765.83 563.017 1761.91 564.453 1757.12 564.453C1751.5 564.453 1746.88 562.433 1743.26 558.394C1739.75 554.504 1738 549.716 1738 544.031C1738 538.316 1739.68 533.574 1743.03 529.804C1746.53 525.884 1751.11 523.924 1756.76 523.924C1761.28 523.924 1764.74 525.54 1767.13 528.771C1767.61 529.43 1767.94 529.759 1768.12 529.759C1768.39 529.759 1768.52 529.22 1768.52 528.143C1768.52 525.749 1768.79 524.552 1769.33 524.552C1769.81 524.552 1772.4 524.807 1777.1 525.315C1781.79 525.794 1784.23 526.063 1784.41 526.123C1784.92 526.303 1785.18 526.692 1785.18 527.29C1785.18 529.355 1785.1 532.437 1784.95 536.536C1784.83 540.635 1784.77 543.717 1784.77 545.782C1784.77 547.009 1784.79 548.849 1784.82 551.302C1784.85 553.756 1784.86 555.596 1784.86 556.823ZM1769.33 544.39C1769.33 542.206 1768.6 540.321 1767.13 538.735C1765.7 537.119 1763.89 536.312 1761.7 536.312C1759.52 536.312 1757.69 537.134 1756.23 538.78C1754.79 540.396 1754.07 542.296 1754.07 544.48C1754.07 546.664 1754.8 548.549 1756.27 550.135C1757.77 551.721 1759.58 552.514 1761.7 552.514C1763.89 552.514 1765.7 551.706 1767.13 550.09C1768.6 548.475 1769.33 546.575 1769.33 544.39ZM1833.78 544.121C1833.78 547.143 1832.81 548.864 1830.87 549.283C1830.54 549.342 1827.44 549.672 1821.57 550.27C1818.04 550.659 1812.78 551.123 1805.78 551.661C1806.19 553.606 1807.47 555.087 1809.59 556.105C1811.33 556.942 1813.3 557.361 1815.52 557.361C1818.18 557.361 1820.86 556.643 1823.55 555.207C1824.69 554.489 1825.82 553.771 1826.96 553.053C1827.59 553.352 1828.64 554.878 1830.1 557.631C1831.6 560.383 1832.35 562.134 1832.35 562.882C1832.35 563.091 1832.12 563.435 1831.67 563.914C1828.02 567.834 1822.35 569.794 1814.66 569.794C1807.54 569.794 1801.8 567.714 1797.43 563.555C1792.94 559.336 1790.7 553.696 1790.7 546.634C1790.7 539.753 1792.7 534.112 1796.71 529.714C1800.84 525.166 1806.31 522.892 1813.14 522.892C1818.88 522.892 1823.76 524.986 1827.77 529.175C1831.78 533.364 1833.78 538.346 1833.78 544.121ZM1818.07 541.383C1818.07 539.528 1817.42 537.897 1816.1 536.491C1814.78 535.085 1813.21 534.382 1811.39 534.382C1809.5 534.382 1807.95 535.175 1806.72 536.76C1805.58 538.227 1805.01 539.947 1805.01 541.922C1805.01 542.73 1805.43 543.134 1806.27 543.134C1808.48 543.134 1811.92 542.79 1816.59 542.101C1817.58 541.952 1818.07 541.712 1818.07 541.383ZM1864.98 532.182C1864.98 532.482 1864.75 532.886 1864.3 533.394C1863.46 533.185 1862.63 533.08 1861.79 533.08C1860.02 533.08 1858.54 533.469 1857.35 534.247C1855.91 535.145 1855.19 536.416 1855.19 538.062C1855.19 539.109 1855.95 540.441 1857.48 542.057C1859.78 544.48 1861.21 546.111 1861.74 546.949C1863.27 549.223 1864.03 551.661 1864.03 554.264C1864.03 555.79 1863.73 557.406 1863.14 559.112C1862.45 560.997 1861.58 562.373 1860.53 563.241C1858.32 565.156 1855.73 566.772 1852.77 568.088C1849.57 569.465 1846.62 570.153 1843.93 570.153C1843.33 570.153 1841.98 568.537 1839.89 565.306C1837.82 562.044 1836.79 560.054 1836.79 559.336C1836.79 559.067 1836.95 558.902 1837.28 558.842C1839.38 558.454 1841.49 558.065 1843.61 557.676C1846.24 556.838 1847.56 555.461 1847.56 553.546C1847.56 552.23 1846.8 550.704 1845.27 548.968C1842.55 545.946 1841.13 544.346 1841.01 544.166C1839.48 542.012 1838.72 539.738 1838.72 537.344C1838.72 532.856 1840.99 529.041 1845.54 525.899C1849.61 523.116 1853.96 521.725 1858.6 521.725C1859.08 521.725 1860.26 523.341 1862.15 526.572C1864.03 529.774 1864.98 531.644 1864.98 532.182Z" fill="#484646"/>
<path d="M1021.25 721.411C1021.25 721.89 1020.93 722.518 1020.3 723.296C1014.8 729.849 1007.48 733.126 998.357 733.126C989.022 733.126 981.451 729.939 975.647 723.566C969.991 717.402 967.164 709.622 967.164 700.227C967.164 691.131 969.932 683.411 975.467 677.068C981.242 670.425 988.588 667.104 997.504 667.104C1007.2 667.104 1014.8 670.081 1020.3 676.035C1020.9 676.694 1021.2 677.277 1021.2 677.786C1021.2 678.354 1020.15 680.464 1018.06 684.114C1016 687.765 1014.69 689.814 1014.16 690.263C1013.92 690.502 1013.62 690.622 1013.26 690.622C1013.11 690.622 1012.36 690.024 1011.01 688.827C1009.4 687.39 1007.81 686.268 1006.26 685.461C1003.89 684.264 1001.44 683.665 998.896 683.665C994.497 683.665 990.981 685.311 988.348 688.602C985.925 691.654 984.713 695.424 984.713 699.913C984.713 704.461 985.925 708.276 988.348 711.358C990.981 714.709 994.497 716.384 998.896 716.384C1001.5 716.384 1003.97 715.816 1006.3 714.679C1007.83 713.931 1009.38 712.884 1010.97 711.537C1012.29 710.4 1013.02 709.832 1013.17 709.832C1013.47 709.832 1013.77 709.996 1014.07 710.325C1014.54 710.864 1015.85 712.734 1017.97 715.936C1020.15 719.257 1021.25 721.082 1021.25 721.411ZM1070.89 709.114C1070.89 711.417 1071.02 714.844 1071.29 719.392C1071.56 723.94 1071.69 727.351 1071.69 729.625C1071.69 730.822 1071.17 731.465 1070.12 731.555C1066.41 731.824 1062.16 731.959 1057.38 731.959C1056.81 731.959 1056.42 731.106 1056.21 729.4C1056.03 727.665 1055.81 726.782 1055.54 726.752C1055.3 726.872 1054.98 727.126 1054.59 727.515C1051.24 730.896 1047.65 732.587 1043.82 732.587C1037.99 732.587 1033.16 730.283 1029.33 725.675C1025.71 721.366 1023.9 716.22 1023.9 710.236C1023.9 703.324 1025.77 697.758 1029.51 693.539C1033.4 689.171 1038.72 686.987 1045.48 686.987C1050.18 686.987 1053.89 688.632 1056.61 691.924C1056.73 692.073 1056.84 692.148 1056.93 692.148C1057.2 692.148 1057.5 691.43 1057.83 689.994C1058.19 688.528 1058.6 687.794 1059.08 687.794C1060.19 687.794 1062.3 688.109 1065.41 688.737C1068.37 689.335 1070.5 689.844 1071.78 690.263C1072.23 690.442 1072.46 690.682 1072.46 690.981C1072.46 691.101 1072.41 691.415 1072.32 691.924C1071.37 697.339 1070.89 703.069 1070.89 709.114ZM1056.43 709.383C1056.43 706.839 1055.63 704.745 1054.01 703.099C1052.43 701.424 1050.35 700.586 1047.77 700.586C1045.2 700.586 1043.12 701.409 1041.53 703.054C1039.95 704.7 1039.16 706.81 1039.16 709.383C1039.16 711.806 1039.99 713.886 1041.67 715.621C1043.34 717.357 1045.38 718.225 1047.77 718.225C1050.32 718.225 1052.4 717.402 1054.01 715.756C1055.63 714.081 1056.43 711.956 1056.43 709.383ZM1096.16 704.536C1096.16 712.704 1096.19 718.973 1096.25 723.341C1096.25 724.029 1096.29 725.211 1096.38 726.887C1096.47 728.413 1096.51 729.595 1096.51 730.433C1096.51 731.061 1096.14 731.435 1095.39 731.555C1094.05 731.794 1091.62 731.914 1088.12 731.914C1084.53 731.914 1082.24 731.794 1081.25 731.555C1080.6 731.405 1080.22 731.001 1080.13 730.343C1080.13 730.253 1080.13 729.61 1080.13 728.413C1080.13 725.75 1080.16 721.77 1080.22 716.474C1080.28 711.148 1080.31 707.169 1080.31 704.536C1080.31 691.968 1080.33 686.239 1080.36 687.346C1080.27 680.733 1079.89 675.033 1079.23 670.245C1079.18 669.916 1079.15 669.662 1079.15 669.482C1079.15 668.824 1079.53 668.495 1080.31 668.495H1096.34C1097.08 668.495 1097.43 668.809 1097.37 669.438L1097.32 670.245C1096.54 683.172 1096.16 694.602 1096.16 704.536ZM1120.75 704.536C1120.75 712.704 1120.78 718.973 1120.84 723.341C1120.84 724.029 1120.89 725.211 1120.98 726.887C1121.07 728.413 1121.11 729.595 1121.11 730.433C1121.11 731.061 1120.74 731.435 1119.99 731.555C1118.64 731.794 1116.22 731.914 1112.72 731.914C1109.13 731.914 1106.84 731.794 1105.85 731.555C1105.19 731.405 1104.82 731.001 1104.73 730.343C1104.73 730.253 1104.73 729.61 1104.73 728.413C1104.73 725.75 1104.76 721.77 1104.82 716.474C1104.88 711.148 1104.91 707.169 1104.91 704.536C1104.91 691.968 1104.92 686.239 1104.95 687.346C1104.86 680.733 1104.49 675.033 1103.83 670.245C1103.77 669.916 1103.74 669.662 1103.74 669.482C1103.74 668.824 1104.13 668.495 1104.91 668.495H1120.93C1121.68 668.495 1122.02 668.809 1121.96 669.438L1121.92 670.245C1121.14 683.172 1120.75 694.602 1120.75 704.536ZM1209.66 729.535C1209.66 730.881 1208.9 731.555 1207.37 731.555C1206.42 731.555 1204.98 731.6 1203.07 731.689C1201.15 731.779 1199.7 731.824 1198.71 731.824C1195.06 731.824 1190.78 729.041 1185.88 723.476C1184.35 724.942 1181.93 727.022 1178.6 729.715C1175.25 731.989 1171.24 733.126 1166.58 733.126C1161.79 733.126 1158 731.45 1155.22 728.099C1152.62 724.987 1151.32 720.992 1151.32 716.115C1151.32 711.058 1152.81 706.854 1155.8 703.503C1157.48 701.648 1161.1 698.925 1166.67 695.335C1164.81 690.697 1163.88 687.046 1163.88 684.383C1163.88 679.357 1165.3 675.362 1168.15 672.4C1170.99 669.438 1174.94 667.956 1180 667.956C1184.33 667.956 1187.75 669.123 1190.23 671.457C1192.77 673.881 1194.04 677.247 1194.04 681.556C1194.04 684.428 1192.97 687.121 1190.81 689.635C1189.91 690.682 1188.64 691.819 1187 693.046C1184.84 694.632 1183.51 695.634 1183 696.053C1183.72 697.13 1184.86 698.701 1186.41 700.765C1187.25 701.753 1188.48 703.249 1190.09 705.254C1192.46 702.232 1194.55 700.077 1196.38 698.791C1198.86 697.055 1201.7 696.187 1204.91 696.187C1206.64 696.187 1207.7 696.277 1208.09 696.457C1208.75 696.786 1209.08 697.683 1209.08 699.15C1209.08 702.65 1208.84 705.299 1208.36 707.094C1208.18 707.812 1207.43 708.306 1206.12 708.575C1204.02 709.024 1202.6 709.428 1201.85 709.787C1199.97 710.654 1198.38 712.151 1197.1 714.275C1198.95 717.327 1202.06 718.853 1206.43 718.853C1208.59 718.853 1209.66 719.257 1209.66 720.065V729.535ZM1185.11 680.434C1185.11 677.621 1183.47 676.215 1180.18 676.215C1178.56 676.215 1177.18 676.694 1176.05 677.651C1174.94 678.609 1174.39 679.88 1174.39 681.466C1174.39 684.069 1175.33 686.583 1177.21 689.006C1182.48 686.104 1185.11 683.246 1185.11 680.434ZM1180.35 715.397C1179.01 714.17 1177.51 712.435 1175.87 710.191C1173.29 706.72 1171.93 704.895 1171.78 704.715C1170.05 705.643 1168.55 707.019 1167.29 708.844C1165.95 710.759 1165.27 712.659 1165.27 714.544C1165.27 716.489 1165.83 718.075 1166.94 719.302C1168.07 720.618 1169.6 721.277 1171.51 721.277C1173.25 721.277 1175 720.693 1176.76 719.526C1178.56 718.359 1179.76 716.983 1180.35 715.397ZM1269.18 718.404C1269.18 719.302 1269.06 720.663 1268.82 722.488C1268.61 724.314 1268.5 725.66 1268.5 726.528C1268.5 727.366 1268.41 727.904 1268.23 728.144C1268.05 728.383 1267.56 728.727 1266.75 729.176C1262.89 731.3 1258.61 732.363 1253.92 732.363C1245.27 732.363 1240.95 729.056 1240.95 722.444C1240.95 720.469 1241.02 717.507 1241.17 713.557C1241.32 709.577 1241.39 706.6 1241.39 704.625C1241.39 703.309 1240.63 702.65 1239.11 702.65C1238.99 702.65 1238.79 702.65 1238.52 702.65C1238.25 702.68 1238.06 702.695 1237.94 702.695C1236.8 702.695 1236.23 702.291 1236.23 701.484C1236.23 701.005 1236.26 700.272 1236.32 699.284C1236.41 698.297 1236.46 697.564 1236.46 697.085C1236.46 696.457 1236.41 695.499 1236.32 694.213C1236.26 692.926 1236.23 691.968 1236.23 691.34C1236.23 690.742 1237.19 690.413 1239.11 690.353C1240.18 690.323 1240.77 690.024 1240.86 689.455C1241.04 688.318 1241.1 686.523 1241.04 684.069C1240.92 680.209 1240.86 678.369 1240.86 678.549C1240.86 675.078 1241.19 673.342 1241.84 673.342C1242.65 673.342 1243.8 673.522 1245.3 673.881C1247.01 674.27 1248.19 674.494 1248.85 674.554C1250.37 674.764 1252.68 675.048 1255.76 675.407C1256.51 675.467 1256.88 675.721 1256.88 676.17C1256.88 677.367 1256.77 679.177 1256.56 681.601C1256.39 684.024 1256.3 685.85 1256.3 687.076C1256.3 688.542 1256.73 689.276 1257.6 689.276C1258.64 689.276 1260.23 689.231 1262.35 689.141C1264.48 689.051 1266.08 689.006 1267.16 689.006C1267.82 689.006 1268.14 689.231 1268.14 689.679C1268.14 690.368 1268.07 691.4 1267.92 692.776C1267.77 694.153 1267.7 695.185 1267.7 695.873C1267.7 696.591 1267.71 697.639 1267.74 699.015C1267.77 700.391 1267.79 701.439 1267.79 702.157C1267.79 702.785 1267.35 703.099 1266.48 703.099C1265.89 703.099 1264.88 703.084 1263.48 703.054C1262.07 702.995 1261.07 702.965 1260.47 702.965H1257.1C1256.65 702.965 1256.43 703.623 1256.43 704.939C1256.43 705.658 1256.43 706.72 1256.43 708.126C1256.46 709.562 1256.48 710.625 1256.48 711.313C1256.48 713.826 1256.76 715.562 1257.33 716.519C1258.14 717.806 1259.72 718.449 1262.09 718.449C1262.83 718.449 1263.9 718.284 1265.27 717.955C1266.68 717.596 1267.67 717.417 1268.23 717.417C1268.86 717.417 1269.18 717.746 1269.18 718.404ZM1303.65 703.593C1303.65 704.76 1303 705.343 1301.72 705.343C1301.15 705.343 1300.31 705.313 1299.2 705.254C1298.13 705.164 1297.32 705.119 1296.78 705.119C1294.3 705.119 1292.61 705.508 1291.71 706.286C1290.81 707.064 1290.36 708.635 1290.36 710.999C1290.36 712.285 1290.38 714.245 1290.41 716.878C1290.47 719.481 1290.5 721.426 1290.5 722.713C1290.5 723.581 1290.56 724.882 1290.68 726.618C1290.8 728.323 1290.86 729.595 1290.86 730.433C1290.86 731.151 1290.36 731.555 1289.37 731.644C1287.94 731.764 1285.74 731.824 1282.78 731.824C1279.93 731.824 1277.66 731.734 1275.95 731.555C1274.97 731.435 1274.47 730.941 1274.47 730.074C1274.47 727.68 1274.49 724.104 1274.52 719.347C1274.55 714.559 1274.56 710.969 1274.56 708.575C1274.56 701.543 1273.92 695.754 1272.63 691.205C1272.57 690.936 1272.54 690.712 1272.54 690.532C1272.54 690.083 1272.77 689.784 1273.22 689.635C1274.86 689.455 1277.27 689.126 1280.44 688.647C1285.17 687.72 1287.61 687.256 1287.76 687.256C1288.3 687.256 1288.64 688.198 1288.79 690.083C1288.94 691.968 1289.21 692.911 1289.6 692.911C1289.18 692.911 1290.41 692.133 1293.28 690.577C1296.15 688.991 1298.92 688.198 1301.58 688.198C1303.26 688.198 1304.1 688.557 1304.1 689.276C1304.1 690.143 1304.01 691.37 1303.83 692.956C1303.65 694.661 1303.54 695.888 1303.51 696.636C1303.51 697.504 1303.53 698.656 1303.56 700.092C1303.62 701.858 1303.65 703.024 1303.65 703.593ZM1354 709.114C1354 711.417 1354.14 714.844 1354.41 719.392C1354.68 723.94 1354.81 727.351 1354.81 729.625C1354.81 730.822 1354.29 731.465 1353.24 731.555C1349.53 731.824 1345.28 731.959 1340.49 731.959C1339.93 731.959 1339.54 731.106 1339.33 729.4C1339.15 727.665 1338.92 726.782 1338.65 726.752C1338.42 726.872 1338.1 727.126 1337.71 727.515C1334.36 730.896 1330.77 732.587 1326.94 732.587C1321.11 732.587 1316.27 730.283 1312.44 725.675C1308.82 721.366 1307.01 716.22 1307.01 710.236C1307.01 703.324 1308.88 697.758 1312.62 693.539C1316.51 689.171 1321.84 686.987 1328.6 686.987C1333.3 686.987 1337.01 688.632 1339.73 691.924C1339.85 692.073 1339.96 692.148 1340.05 692.148C1340.32 692.148 1340.61 691.43 1340.94 689.994C1341.3 688.528 1341.72 687.794 1342.2 687.794C1343.31 687.794 1345.42 688.109 1348.53 688.737C1351.49 689.335 1353.62 689.844 1354.9 690.263C1355.35 690.442 1355.58 690.682 1355.58 690.981C1355.58 691.101 1355.53 691.415 1355.44 691.924C1354.48 697.339 1354 703.069 1354 709.114ZM1339.55 709.383C1339.55 706.839 1338.74 704.745 1337.13 703.099C1335.54 701.424 1333.46 700.586 1330.89 700.586C1328.32 700.586 1326.24 701.409 1324.65 703.054C1323.07 704.7 1322.27 706.81 1322.27 709.383C1322.27 711.806 1323.11 713.886 1324.79 715.621C1326.46 717.357 1328.5 718.225 1330.89 718.225C1333.43 718.225 1335.51 717.402 1337.13 715.756C1338.74 714.081 1339.55 711.956 1339.55 709.383ZM1410.51 667.867C1410.51 667.208 1410.39 668.196 1410.15 670.829C1409.82 674.15 1409.57 678.399 1409.39 683.575C1409.15 689.44 1409.03 696.113 1409.03 703.593C1409.03 715.951 1409.37 724.748 1410.06 729.984C1410.12 730.552 1410.15 730.911 1410.15 731.061C1410.15 731.39 1409.93 731.585 1409.48 731.644C1408.4 731.794 1404.44 731.869 1397.59 731.869C1395.97 731.869 1395.04 731.555 1394.8 730.926C1394.74 729.789 1394.68 728.652 1394.62 727.515C1394.59 727.276 1394.47 727.037 1394.26 726.797C1394.08 726.887 1393.86 727.066 1393.59 727.336C1390.36 730.507 1386.32 732.093 1381.47 732.093C1375.16 732.093 1370.1 729.879 1366.3 725.451C1362.68 721.232 1360.87 715.906 1360.87 709.473C1360.87 702.95 1362.65 697.579 1366.21 693.36C1369.98 688.872 1375.07 686.627 1381.47 686.627C1385.99 686.627 1389.51 688.064 1392.02 690.936C1392.44 691.415 1392.74 691.654 1392.92 691.654C1393.19 691.654 1393.32 691.265 1393.32 690.487C1393.32 688.183 1393.26 684.742 1393.14 680.164C1393.02 675.586 1392.96 672.16 1392.96 669.886C1392.96 669.019 1393.2 668.525 1393.68 668.405C1395.6 668.316 1398.23 668.136 1401.58 667.867C1407.56 667.119 1410.21 666.745 1409.52 666.745C1410.18 666.745 1410.51 667.119 1410.51 667.867ZM1393.59 709.114C1393.59 706.75 1392.77 704.685 1391.12 702.92C1389.48 701.124 1387.49 700.227 1385.15 700.227C1382.7 700.227 1380.74 701.124 1379.27 702.92C1377.84 704.685 1377.12 706.81 1377.12 709.293C1377.12 711.717 1377.85 713.766 1379.32 715.442C1380.81 717.237 1382.76 718.135 1385.15 718.135C1387.55 718.135 1389.55 717.237 1391.17 715.442C1392.78 713.647 1393.59 711.537 1393.59 709.114ZM1458.27 707.184C1458.27 710.206 1457.29 711.926 1455.35 712.345C1455.02 712.405 1451.92 712.734 1446.06 713.332C1442.53 713.721 1437.26 714.185 1430.26 714.724C1430.68 716.669 1431.95 718.15 1434.07 719.167C1435.81 720.005 1437.78 720.424 1440 720.424C1442.66 720.424 1445.34 719.706 1448.03 718.27C1449.17 717.551 1450.31 716.833 1451.44 716.115C1452.07 716.414 1453.12 717.94 1454.59 720.693C1456.08 723.446 1456.83 725.196 1456.83 725.944C1456.83 726.154 1456.61 726.498 1456.16 726.977C1452.51 730.896 1446.84 732.856 1439.15 732.856C1432.02 732.856 1426.28 730.777 1421.91 726.618C1417.42 722.399 1415.18 716.758 1415.18 709.697C1415.18 702.815 1417.18 697.175 1421.19 692.776C1425.32 688.228 1430.8 685.954 1437.62 685.954C1443.37 685.954 1448.24 688.049 1452.25 692.238C1456.26 696.427 1458.27 701.409 1458.27 707.184ZM1442.56 704.446C1442.56 702.591 1441.9 700.96 1440.58 699.554C1439.27 698.147 1437.7 697.444 1435.87 697.444C1433.98 697.444 1432.43 698.237 1431.2 699.823C1430.07 701.289 1429.5 703.01 1429.5 704.984C1429.5 705.792 1429.92 706.196 1430.75 706.196C1432.97 706.196 1436.41 705.852 1441.08 705.164C1442.06 705.014 1442.56 704.775 1442.56 704.446Z" fill="#484646"/>
</svg>
